Raleway-Medium.ufo
<glyph name="percent" format="2">
  <advance width="733"/>
  <unicode hex="0025"/>
  <outline>
    <contour>
      <point x="106" y="428"/>
      <point x="191" y="428" type="curve" smooth="yes"/>
      <point x="277" y="428"/>
      <point x="345" y="493"/>
      <point x="345" y="574" type="curve" smooth="yes"/>
      <point x="345" y="655"/>
      <point x="277" y="720"/>
      <point x="191" y="720" type="curve" smooth="yes"/>
      <point x="106" y="720"/>
      <point x="37" y="655"/>
      <point x="37" y="574" type="curve" smooth="yes"/>
      <point x="37" y="493"/>
    </contour>
    <contour>
      <point x="241" y="476"/>
      <point x="191" y="476" type="curve" smooth="yes"/>
      <point x="142" y="476"/>
      <point x="101" y="520"/>
      <point x="101" y="574" type="curve" smooth="yes"/>
      <point x="101" y="626"/>
      <point x="141" y="672"/>
      <point x="191" y="672" type="curve" smooth="yes"/>
      <point x="239" y="672"/>
      <point x="281" y="628"/>
      <point x="281" y="574" type="curve" smooth="yes"/>
      <point x="281" y="522"/>
    </contour>
    <contour>
      <point x="457" y="-10"/>
      <point x="542" y="-10" type="curve" smooth="yes"/>
      <point x="628" y="-10"/>
      <point x="696" y="55"/>
      <point x="696" y="136" type="curve" smooth="yes"/>
      <point x="696" y="217"/>
      <point x="628" y="282"/>
      <point x="542" y="282" type="curve" smooth="yes"/>
      <point x="457" y="282"/>
      <point x="388" y="217"/>
      <point x="388" y="136" type="curve" smooth="yes"/>
      <point x="388" y="55"/>
    </contour>
    <contour>
      <point x="592" y="38"/>
      <point x="542" y="38" type="curve" smooth="yes"/>
      <point x="493" y="38"/>
      <point x="452" y="82"/>
      <point x="452" y="136" type="curve" smooth="yes"/>
      <point x="452" y="188"/>
      <point x="492" y="234"/>
      <point x="542" y="234" type="curve" smooth="yes"/>
      <point x="590" y="234"/>
      <point x="632" y="190"/>
      <point x="632" y="136" type="curve" smooth="yes"/>
      <point x="632" y="83"/>
    </contour>
    <component base="fraction" xOffset="283"/>
  </outline>
</glyph>
<glyph name="slash" format="2">
  <advance width="633"/>
  <unicode hex="002F"/>
  <outline>
    <contour>
      <point x="605" y="710" type="line"/>
      <point x="506" y="710" type="line"/>
      <point x="27" y="0" type="line"/>
      <point x="125" y="0" type="line"/>
    </contour>
  </outline>
</glyph>
<glyph name="two" format="2">
  <advance width="535"/>
  <unicode hex="0032"/>
  <outline>
    <contour>
      <point x="43" y="0" type="curve"/>
      <point x="488" y="0" type="line"/>
      <point x="488" y="80" type="line"/>
      <point x="135" y="80" type="line"/>
      <point x="152" y="148"/>
      <point x="195" y="177"/>
      <point x="316" y="237" type="curve" smooth="yes"/>
      <point x="375" y="266"/>
      <point x="477" y="317"/>
      <point x="477" y="420" type="curve" smooth="yes"/>
      <point x="477" y="509"/>
      <point x="401" y="581"/>
      <point x="278" y="581" type="curve" smooth="yes"/>
      <point x="154" y="581"/>
      <point x="73" y="509"/>
      <point x="51" y="486" type="curve"/>
      <point x="106" y="424" type="line"/>
      <point x="132" y="454"/>
      <point x="184" y="503"/>
      <point x="263" y="503" type="curve" smooth="yes"/>
      <point x="340" y="503"/>
      <point x="382" y="456"/>
      <point x="382" y="410" type="curve" smooth="yes"/>
      <point x="382" y="339"/>
      <point x="285" y="305"/>
      <point x="206" y="261" type="curve" smooth="yes"/>
      <point x="71" y="185"/>
      <point x="43" y="107"/>
    </contour>
  </outline>
</glyph>
<glyph name="six" format="2">
  <advance width="606"/>
  <unicode hex="0036"/>
  <outline>
    <contour>
      <point x="562" y="369"/>
      <point x="562" y="235" type="curve" smooth="yes"/>
      <point x="562" y="99"/>
      <point x="451" y="-10"/>
      <point x="308" y="-10" type="curve" smooth="yes"/>
      <point x="155" y="-10"/>
      <point x="51" y="105"/>
      <point x="51" y="296" type="curve" smooth="yes"/>
      <point x="51" y="576"/>
      <point x="157" y="715"/>
      <point x="317" y="715" type="curve" smooth="yes"/>
      <point x="409" y="715"/>
      <point x="488" y="668"/>
      <point x="531" y="589" type="curve"/>
      <point x="477" y="536" type="line"/>
      <point x="448" y="598"/>
      <point x="386" y="638"/>
      <point x="316" y="638" type="curve" smooth="yes"/>
      <point x="207" y="638"/>
      <point x="136" y="536"/>
      <point x="134" y="360" type="curve"/>
      <point x="163" y="429"/>
      <point x="234" y="474"/>
      <point x="317" y="474" type="curve" smooth="yes"/>
      <point x="454" y="474"/>
    </contour>
    <contour>
      <point x="217" y="66"/>
      <point x="309" y="66" type="curve" smooth="yes"/>
      <point x="401" y="66"/>
      <point x="478" y="142"/>
      <point x="478" y="235" type="curve" smooth="yes"/>
      <point x="478" y="327"/>
      <point x="401" y="403"/>
      <point x="309" y="403" type="curve" smooth="yes"/>
      <point x="216" y="403"/>
      <point x="140" y="327"/>
      <point x="140" y="235" type="curve" smooth="yes"/>
      <point x="140" y="143"/>
    </contour>
  </outline>
</glyph>
<glyph name="colon" format="2">
  <advance width="201"/>
  <unicode hex="003A"/>
  <outline>
    <contour>
      <point x="64" y="406" type="line"/>
      <point x="137" y="406" type="line"/>
      <point x="137" y="518" type="line"/>
      <point x="64" y="518" type="line"/>
    </contour>
    <contour>
      <point x="64" y="0" type="line"/>
      <point x="137" y="0" type="line"/>
      <point x="137" y="112" type="line"/>
      <point x="64" y="112" type="line"/>
    </contour>
  </outline>
</glyph>
<glyph name="greater" format="2">
  <advance width="510"/>
  <unicode hex="003E"/>
  <outline>
    <contour>
      <point x="477" y="234" type="line"/>
      <point x="477" y="280" type="line"/>
      <point x="57" y="533" type="line"/>
      <point x="57" y="439" type="line"/>
      <point x="349" y="259" type="line"/>
      <point x="57" y="82" type="line"/>
      <point x="57" y="-16" type="line"/>
    </contour>
  </outline>
</glyph>
<glyph name="at" format="2">
  <advance width="840"/>
  <unicode hex="0040"/>
  <outline>
    <contour>
      <point x="616" y="603"/>
      <point x="419" y="603" type="curve" smooth="yes"/>
      <point x="224" y="603"/>
      <point x="46" y="459"/>
      <point x="46" y="230" type="curve" smooth="yes"/>
      <point x="46" y="11"/>
      <point x="210" y="-146"/>
      <point x="409" y="-146" type="curve" smooth="yes"/>
      <point x="466" y="-146"/>
      <point x="524" y="-133"/>
      <point x="578" y="-106" type="curve"/>
      <point x="564" y="-68" type="line"/>
      <point x="515" y="-91"/>
      <point x="469" y="-106"/>
      <point x="410" y="-106" type="curve" smooth="yes"/>
      <point x="223" y="-106"/>
      <point x="88" y="44"/>
      <point x="88" y="230" type="curve" smooth="yes"/>
      <point x="88" y="423"/>
      <point x="233" y="563"/>
      <point x="417" y="563" type="curve" smooth="yes"/>
      <point x="605" y="563"/>
      <point x="744" y="415"/>
      <point x="744" y="224" type="curve" smooth="yes"/>
      <point x="744" y="156"/>
      <point x="725" y="28"/>
      <point x="645" y="28" type="curve" smooth="yes"/>
      <point x="599" y="28"/>
      <point x="594" y="73"/>
      <point x="594" y="132" type="curve" smooth="yes"/>
      <point x="594" y="251" type="line" smooth="yes"/>
      <point x="594" y="345"/>
      <point x="581" y="457"/>
      <point x="425" y="457" type="curve" smooth="yes"/>
      <point x="363" y="457"/>
      <point x="307" y="438"/>
      <point x="259" y="406" type="curve"/>
      <point x="279" y="357" type="line"/>
      <point x="316" y="385"/>
      <point x="364" y="403"/>
      <point x="417" y="403" type="curve" smooth="yes"/>
      <point x="513" y="403"/>
      <point x="538" y="342"/>
      <point x="538" y="254" type="curve"/>
      <point x="517" y="262"/>
      <point x="472" y="277"/>
      <point x="415" y="277" type="curve" smooth="yes"/>
      <point x="326" y="277"/>
      <point x="228" y="243"/>
      <point x="228" y="138" type="curve" smooth="yes"/>
      <point x="228" y="60"/>
      <point x="283" y="2"/>
      <point x="380" y="2" type="curve" smooth="yes"/>
      <point x="450" y="2"/>
      <point x="512" y="33"/>
      <point x="550" y="73" type="curve"/>
      <point x="555" y="28"/>
      <point x="569" y="-16"/>
      <point x="637" y="-16" type="curve" smooth="yes"/>
      <point x="775" y="-16"/>
      <point x="786" y="165"/>
      <point x="786" y="222" type="curve" smooth="yes"/>
      <point x="786" y="455"/>
    </contour>
    <contour>
      <point x="528" y="100"/>
      <point x="476" y="76" type="curve" smooth="yes"/>
      <point x="451" y="64"/>
      <point x="416" y="54"/>
      <point x="384" y="54" type="curve" smooth="yes"/>
      <point x="324" y="54"/>
      <point x="285" y="92"/>
      <point x="285" y="142" type="curve" smooth="yes"/>
      <point x="285" y="208"/>
      <point x="346" y="230"/>
      <point x="414" y="230" type="curve" smooth="yes"/>
      <point x="474" y="230"/>
      <point x="520" y="211"/>
      <point x="537" y="208" type="curve"/>
      <point x="537" y="171" type="line" smooth="yes"/>
      <point x="537" y="136"/>
    </contour>
  </outline>
</glyph>
<glyph name="B" format="2">
  <advance width="671"/>
  <unicode hex="0042"/>
  <outline>
    <contour>
      <point x="630" y="73"/>
      <point x="630" y="183" type="curve" smooth="yes"/>
      <point x="630" y="271"/>
      <point x="579" y="340"/>
      <point x="498" y="364" type="curve"/>
      <point x="563" y="393"/>
      <point x="600" y="459"/>
      <point x="600" y="529" type="curve" smooth="yes"/>
      <point x="600" y="618"/>
      <point x="538" y="710"/>
      <point x="438" y="710" type="curve" smooth="yes"/>
      <point x="85" y="710" type="line"/>
      <point x="85" y="0" type="line"/>
      <point x="422" y="0" type="line" smooth="yes"/>
      <point x="536" y="0"/>
    </contour>
    <contour>
      <point x="539" y="264"/>
      <point x="539" y="199" type="curve" smooth="yes"/>
      <point x="539" y="135"/>
      <point x="488" y="78"/>
      <point x="422" y="78" type="curve" smooth="yes"/>
      <point x="175" y="78" type="line"/>
      <point x="175" y="322" type="line"/>
      <point x="429" y="322" type="line" smooth="yes"/>
      <point x="492" y="322"/>
    </contour>
    <contour>
      <point x="175" y="632" type="line"/>
      <point x="407" y="632" type="line"/>
      <point x="467" y="632"/>
      <point x="511" y="580"/>
      <point x="511" y="513" type="curve" smooth="yes"/>
      <point x="511" y="448"/>
      <point x="464" y="395"/>
      <point x="401" y="395" type="curve" smooth="yes"/>
      <point x="175" y="395" type="line"/>
    </contour>
  </outline>
</glyph>
<glyph name="C" format="2">
  <advance width="682"/>
  <unicode hex="0043"/>
  <anchor x="373" y="0" name="bottom"/>
  <anchor x="376" y="708" name="top"/>
  <outline>
    <contour>
      <point x="39" y="532"/>
      <point x="39" y="360" type="curve" smooth="yes"/>
      <point x="39" y="180"/>
      <point x="177" y="-6"/>
      <point x="372" y="-6" type="curve" smooth="yes"/>
      <point x="482" y="-6"/>
      <point x="609" y="53"/>
      <point x="654" y="159" type="curve"/>
      <point x="579" y="200" type="line"/>
      <point x="538" y="112"/>
      <point x="450" y="75"/>
      <point x="376" y="75" type="curve" smooth="yes"/>
      <point x="235" y="75"/>
      <point x="130" y="208"/>
      <point x="130" y="356" type="curve" smooth="yes"/>
      <point x="130" y="490"/>
      <point x="215" y="633"/>
      <point x="373" y="633" type="curve" smooth="yes"/>
      <point x="445" y="633"/>
      <point x="528" y="603"/>
      <point x="570" y="513" type="curve"/>
      <point x="641" y="559" type="line"/>
      <point x="597" y="650"/>
      <point x="503" y="714"/>
      <point x="377" y="714" type="curve" smooth="yes"/>
      <point x="163" y="714"/>
    </contour>
  </outline>
</glyph>
<glyph name="D" format="2">
  <advance width="716"/>
  <unicode hex="0044"/>
  <anchor x="358" y="0" name="bottom"/>
  <anchor x="358" y="355" name="center"/>
  <anchor x="340" y="708" name="top"/>
  <outline>
    <contour>
      <point x="85" y="0" type="line"/>
      <point x="331" y="0" type="line" smooth="yes"/>
      <point x="540" y="0"/>
      <point x="674" y="141"/>
      <point x="674" y="356" type="curve" smooth="yes"/>
      <point x="674" y="552"/>
      <point x="559" y="710"/>
      <point x="331" y="710" type="curve" smooth="yes"/>
      <point x="85" y="710" type="line"/>
    </contour>
    <contour>
      <point x="583" y="516"/>
      <point x="583" y="356" type="curve" smooth="yes"/>
      <point x="583" y="199"/>
      <point x="495" y="80"/>
      <point x="331" y="80" type="curve" smooth="yes"/>
      <point x="175" y="80" type="line"/>
      <point x="175" y="630" type="line"/>
      <point x="331" y="630" type="line" smooth="yes"/>
      <point x="492" y="630"/>
    </contour>
  </outline>
</glyph>
<glyph name="E" format="2">
  <advance width="605"/>
  <unicode hex="0045"/>
  <anchor x="334" y="0" name="bottom"/>
  <anchor x="567" y="0" name="ogonek"/>
  <anchor x="334" y="708" name="top"/>
  <anchor x="20" y="710" name="topleft"/>
  <outline>
    <contour>
      <point x="567" y="80" type="line"/>
      <point x="175" y="80" type="line"/>
      <point x="175" y="325" type="line"/>
      <point x="508" y="325" type="line"/>
      <point x="508" y="400" type="line"/>
      <point x="175" y="400" type="line"/>
      <point x="175" y="630" type="line"/>
      <point x="558" y="630" type="line"/>
      <point x="558" y="710" type="line"/>
      <point x="85" y="710" type="line"/>
      <point x="85" y="0" type="line"/>
      <point x="567" y="0" type="line"/>
    </contour>
  </outline>
</glyph>
<glyph name="H" format="2">
  <advance width="741"/>
  <unicode hex="0048"/>
  <anchor x="371" y="0" name="bottom"/>
  <anchor x="371" y="355" name="center"/>
  <anchor x="373" y="708" name="top"/>
  <anchor x="20" y="710" name="topleft"/>
  <outline>
    <contour>
      <point x="656" y="710" type="line"/>
      <point x="566" y="710" type="line"/>
      <point x="566" y="403" type="line"/>
      <point x="175" y="403" type="line"/>
      <point x="175" y="710" type="line"/>
      <point x="85" y="710" type="line"/>
      <point x="85" y="0" type="line"/>
      <point x="175" y="0" type="line"/>
      <point x="175" y="323" type="line"/>
      <point x="566" y="323" type="line"/>
      <point x="566" y="0" type="line"/>
      <point x="656" y="0" type="line"/>
    </contour>
  </outline>
</glyph>
<glyph name="N" format="2">
  <advance width="770"/>
  <unicode hex="004E"/>
  <anchor x="387" y="0" name="bottom"/>
  <anchor x="387" y="708" name="top"/>
  <outline>
    <contour>
      <point x="175" y="544" type="line"/>
      <point x="603" y="0" type="line"/>
      <point x="685" y="0" type="line"/>
      <point x="685" y="709" type="line"/>
      <point x="595" y="709" type="line"/>
      <point x="595" y="155" type="line"/>
      <point x="161" y="710" type="line"/>
      <point x="85" y="710" type="line"/>
      <point x="85" y="0" type="line"/>
      <point x="175" y="0" type="line"/>
    </contour>
  </outline>
</glyph>
<glyph name="T" format="2">
  <advance width="614"/>
  <unicode hex="0054"/>
  <anchor x="310" y="0" name="bottom"/>
  <anchor x="310" y="708" name="top"/>
  <outline>
    <contour>
      <point x="597" y="630" type="line"/>
      <point x="597" y="710" type="line"/>
      <point x="17" y="710" type="line"/>
      <point x="17" y="630" type="line"/>
      <point x="262" y="630" type="line"/>
      <point x="262" y="0" type="line"/>
      <point x="352" y="0" type="line"/>
      <point x="352" y="630" type="line"/>
    </contour>
  </outline>
</glyph>
<glyph name="underscore" format="2">
  <advance width="503"/>
  <unicode hex="005F"/>
  <outline>
    <contour>
      <point x="63" y="-80" type="line"/>
      <point x="440" y="-80" type="line"/>
      <point x="440" y="0" type="line"/>
      <point x="63" y="0" type="line"/>
    </contour>
  </outline>
</glyph>
<glyph name="b" format="2">
  <advance width="623"/>
  <unicode hex="0062"/>
  <outline>
    <contour>
      <point x="258" y="-10"/>
      <point x="339" y="-10" type="curve" smooth="yes"/>
      <point x="479" y="-10"/>
      <point x="586" y="112"/>
      <point x="586" y="259" type="curve" smooth="yes"/>
      <point x="586" y="399"/>
      <point x="495" y="531"/>
      <point x="352" y="531" type="curve" smooth="yes"/>
      <point x="267" y="531"/>
      <point x="203" y="486"/>
      <point x="159" y="418" type="curve"/>
      <point x="159" y="730" type="line"/>
      <point x="71" y="730" type="line"/>
      <point x="71" y="0" type="line"/>
      <point x="149" y="0" type="line"/>
      <point x="149" y="98" type="line"/>
      <point x="187" y="34"/>
    </contour>
    <contour>
      <point x="422" y="66"/>
      <point x="317" y="66" type="curve" smooth="yes"/>
      <point x="254" y="66"/>
      <point x="172" y="116"/>
      <point x="159" y="182" type="curve"/>
      <point x="159" y="333" type="line"/>
      <point x="190" y="399"/>
      <point x="250" y="455"/>
      <point x="325" y="455" type="curve" smooth="yes"/>
      <point x="426" y="455"/>
      <point x="496" y="361"/>
      <point x="496" y="259" type="curve" smooth="yes"/>
      <point x="496" y="159"/>
    </contour>
  </outline>
</glyph>
<glyph name="e" format="2">
  <advance width="591"/>
  <unicode hex="0065"/>
  <anchor x="301" y="0" name="bottom"/>
  <anchor x="376" y="0" name="ogonek"/>
  <anchor x="299" y="522" name="top"/>
  <outline>
    <contour>
      <point x="302" y="-10" type="curve" smooth="yes"/>
      <point x="407" y="-10"/>
      <point x="496" y="45"/>
      <point x="530" y="122" type="curve"/>
      <point x="454" y="143" type="line"/>
      <point x="432" y="91"/>
      <point x="369" y="56"/>
      <point x="305" y="56" type="curve" smooth="yes"/>
      <point x="214" y="56"/>
      <point x="137" y="128"/>
      <point x="129" y="231" type="curve"/>
      <point x="562" y="231" type="line"/>
      <point x="563" y="237"/>
      <point x="564" y="251"/>
      <point x="564" y="265" type="curve" smooth="yes"/>
      <point x="564" y="405"/>
      <point x="461" y="531"/>
      <point x="303" y="531" type="curve" smooth="yes"/>
      <point x="146" y="531"/>
      <point x="36" y="408"/>
      <point x="36" y="261" type="curve" smooth="yes"/>
      <point x="36" y="114"/>
      <point x="145" y="-10"/>
    </contour>
    <contour>
      <point x="126" y="292" type="line"/>
      <point x="133" y="393"/>
      <point x="210" y="465"/>
      <point x="303" y="465" type="curve" smooth="yes"/>
      <point x="396" y="465"/>
      <point x="473" y="394"/>
      <point x="482" y="292" type="curve"/>
    </contour>
  </outline>
</glyph>
<glyph name="f" format="2">
  <advance width="343"/>
  <unicode hex="0066"/>
  <outline>
    <contour>
      <point x="99" y="0" type="line"/>
      <point x="187" y="0" type="line"/>
      <point x="187" y="453" type="line"/>
      <point x="326" y="453" type="line"/>
      <point x="326" y="522" type="line"/>
      <point x="187" y="522" type="line"/>
      <point x="187" y="536" type="line" smooth="yes"/>
      <point x="187" y="619"/>
      <point x="219" y="665"/>
      <point x="277" y="665" type="curve" smooth="yes"/>
      <point x="303" y="665"/>
      <point x="333" y="656"/>
      <point x="352" y="643" type="curve"/>
      <point x="374" y="708" type="line"/>
      <point x="342" y="728"/>
      <point x="300" y="740"/>
      <point x="259" y="740" type="curve" smooth="yes"/>
      <point x="161" y="740"/>
      <point x="99" y="661"/>
      <point x="99" y="533" type="curve" smooth="yes"/>
      <point x="99" y="522" type="line"/>
      <point x="28" y="522" type="line"/>
      <point x="28" y="453" type="line"/>
      <point x="99" y="453" type="line"/>
    </contour>
  </outline>
</glyph>
<glyph name="i" format="2">
  <advance width="230"/>
  <unicode hex="0069"/>
  <anchor x="115" y="0" name="bottom"/>
  <anchor x="159" y="0" name="ogonek"/>
  <outline>
    <contour>
      <point x="71" y="0" type="line"/>
      <point x="159" y="0" type="line"/>
      <point x="159" y="522" type="line"/>
      <point x="71" y="522" type="line"/>
    </contour>
    <contour>
      <point x="71" y="620" type="line"/>
      <point x="159" y="620" type="line"/>
      <point x="159" y="730" type="line"/>
      <point x="71" y="730" type="line"/>
    </contour>
  </outline>
</glyph>
<glyph name="m" format="2">
  <advance width="924"/>
  <unicode hex="006D"/>
  <anchor x="462" y="0" name="bottom"/>
  <anchor x="462" y="522" name="top"/>
  <outline>
    <contour>
      <point x="858" y="0" type="line"/>
      <point x="858" y="312" type="line"/>
      <point x="858" y="437"/>
      <point x="820" y="531"/>
      <point x="700" y="531" type="curve" smooth="yes"/>
      <point x="615" y="531"/>
      <point x="547" y="487"/>
      <point x="501" y="404" type="curve"/>
      <point x="489" y="478"/>
      <point x="436" y="531"/>
      <point x="349" y="531" type="curve" smooth="yes"/>
      <point x="264" y="531"/>
      <point x="193" y="487"/>
      <point x="151" y="410" type="curve"/>
      <point x="151" y="522" type="line"/>
      <point x="71" y="522" type="line"/>
      <point x="71" y="0" type="line"/>
      <point x="159" y="0" type="line"/>
      <point x="159" y="315" type="line"/>
      <point x="183" y="397"/>
      <point x="246" y="452"/>
      <point x="316" y="452" type="curve" smooth="yes"/>
      <point x="385" y="452"/>
      <point x="420" y="403"/>
      <point x="420" y="292" type="curve" smooth="yes"/>
      <point x="420" y="0" type="line"/>
      <point x="508" y="0" type="line"/>
      <point x="508" y="314" type="line"/>
      <point x="532" y="395"/>
      <point x="594" y="452"/>
      <point x="665" y="452" type="curve" smooth="yes"/>
      <point x="734" y="452"/>
      <point x="770" y="401"/>
      <point x="770" y="292" type="curve" smooth="yes"/>
      <point x="770" y="0" type="line"/>
    </contour>
  </outline>
</glyph>
<glyph name="n" format="2">
  <advance width="590"/>
  <unicode hex="006E"/>
  <anchor x="294" y="0" name="bottom"/>
  <anchor x="303" y="522" name="top"/>
  <outline>
    <contour>
      <point x="524" y="0" type="line"/>
      <point x="524" y="312" type="line"/>
      <point x="524" y="438"/>
      <point x="489" y="531"/>
      <point x="368" y="531" type="curve" smooth="yes"/>
      <point x="276" y="531"/>
      <point x="192" y="483"/>
      <point x="151" y="410" type="curve"/>
      <point x="151" y="522" type="line"/>
      <point x="71" y="522" type="line"/>
      <point x="71" y="0" type="line"/>
      <point x="159" y="0" type="line"/>
      <point x="159" y="315" type="line"/>
      <point x="183" y="394"/>
      <point x="261" y="452"/>
      <point x="333" y="452" type="curve" smooth="yes"/>
      <point x="402" y="452"/>
      <point x="436" y="403"/>
      <point x="436" y="292" type="curve" smooth="yes"/>
      <point x="436" y="0" type="line"/>
    </contour>
  </outline>
</glyph>
<glyph name="p" format="2">
  <advance width="623"/>
  <unicode hex="0070"/>
  <outline>
    <contour>
      <point x="266" y="-10"/>
      <point x="352" y="-10" type="curve" smooth="yes"/>
      <point x="490" y="-10"/>
      <point x="586" y="112"/>
      <point x="586" y="261" type="curve" smooth="yes"/>
      <point x="586" y="403"/>
      <point x="482" y="531"/>
      <point x="339" y="531" type="curve" smooth="yes"/>
      <point x="260" y="531"/>
      <point x="190" y="488"/>
      <point x="149" y="424" type="curve"/>
      <point x="149" y="522" type="line"/>
      <point x="71" y="522" type="line"/>
      <point x="71" y="-213" type="line"/>
      <point x="159" y="-213" type="line"/>
      <point x="159" y="103" type="line"/>
      <point x="198" y="38"/>
    </contour>
    <contour>
      <point x="428" y="66"/>
      <point x="325" y="66" type="curve" smooth="yes"/>
      <point x="254" y="66"/>
      <point x="188" y="120"/>
      <point x="159" y="189" type="curve"/>
      <point x="159" y="338" type="line"/>
      <point x="172" y="402"/>
      <point x="254" y="455"/>
      <point x="317" y="455" type="curve" smooth="yes"/>
      <point x="418" y="455"/>
      <point x="496" y="366"/>
      <point x="496" y="261" type="curve" smooth="yes"/>
      <point x="496" y="162"/>
    </contour>
  </outline>
</glyph>
<glyph name="q" format="2">
  <advance width="623"/>
  <unicode hex="0071"/>
  <outline>
    <contour>
      <point x="132" y="-10"/>
      <point x="271" y="-10" type="curve" smooth="yes"/>
      <point x="350" y="-10"/>
      <point x="417" y="29"/>
      <point x="464" y="103" type="curve"/>
      <point x="464" y="-213" type="line"/>
      <point x="552" y="-213" type="line"/>
      <point x="552" y="522" type="line"/>
      <point x="474" y="522" type="line"/>
      <point x="474" y="423" type="line"/>
      <point x="435" y="486"/>
      <point x="365" y="531"/>
      <point x="284" y="531" type="curve" smooth="yes"/>
      <point x="145" y="531"/>
      <point x="37" y="408"/>
      <point x="37" y="261" type="curve" smooth="yes"/>
      <point x="37" y="117"/>
    </contour>
    <contour>
      <point x="375" y="66"/>
      <point x="301" y="66" type="curve" smooth="yes"/>
      <point x="199" y="66"/>
      <point x="127" y="154"/>
      <point x="127" y="259" type="curve" smooth="yes"/>
      <point x="127" y="358"/>
      <point x="200" y="455"/>
      <point x="303" y="455" type="curve" smooth="yes"/>
      <point x="372" y="455"/>
      <point x="452" y="396"/>
      <point x="464" y="328" type="curve"/>
      <point x="464" y="178" type="line"/>
      <point x="430" y="116"/>
    </contour>
  </outline>
</glyph>
<glyph name="r" format="2">
  <advance width="363"/>
  <unicode hex="0072"/>
  <anchor x="112" y="0" name="bottom"/>
  <anchor x="211" y="522" name="top"/>
  <outline>
    <contour>
      <point x="347" y="445" type="curve"/>
      <point x="347" y="525" type="line"/>
      <point x="340" y="526"/>
      <point x="331" y="526"/>
      <point x="318" y="526" type="curve" smooth="yes"/>
      <point x="252" y="521"/>
      <point x="189" y="473"/>
      <point x="153" y="401" type="curve"/>
      <point x="153" y="522" type="line"/>
      <point x="71" y="522" type="line"/>
      <point x="71" y="0" type="line"/>
      <point x="159" y="0" type="line"/>
      <point x="159" y="322" type="line"/>
      <point x="187" y="398"/>
      <point x="259" y="443"/>
    </contour>
  </outline>
</glyph>
<glyph name="w" format="2">
  <advance width="821"/>
  <unicode hex="0077"/>
  <anchor x="410" y="522" name="top"/>
  <outline>
    <contour>
      <point x="725" y="522" type="line"/>
      <point x="546" y="87" type="line"/>
      <point x="462" y="301" type="line"/>
      <point x="549" y="521" type="line"/>
      <point x="472" y="521" type="line"/>
      <point x="410" y="355" type="line"/>
      <point x="348" y="521" type="line"/>
      <point x="271" y="521" type="line"/>
      <point x="359" y="301" type="line"/>
      <point x="275" y="87" type="line"/>
      <point x="95" y="522" type="line"/>
      <point x="11" y="522" type="line"/>
      <point x="233" y="0" type="line"/>
      <point x="310" y="0" type="line"/>
      <point x="410" y="246" type="line"/>
      <point x="511" y="0" type="line"/>
      <point x="588" y="0" type="line"/>
      <point x="810" y="522" type="line"/>
    </contour>
  </outline>
</glyph>
<glyph name="braceleft" format="2">
  <advance width="271"/>
  <unicode hex="007B"/>
  <outline>
    <contour>
      <point x="169" y="668" type="line"/>
      <point x="224" y="668" type="line"/>
      <point x="224" y="740" type="line"/>
      <point x="112" y="740" type="line" smooth="yes"/>
      <point x="105" y="740"/>
      <point x="89" y="735"/>
      <point x="89" y="710" type="curve" smooth="yes"/>
      <point x="89" y="450" type="line" smooth="yes"/>
      <point x="89" y="430"/>
      <point x="75" y="393"/>
      <point x="47" y="393" type="curve"/>
      <point x="47" y="329" type="line"/>
      <point x="72" y="325"/>
      <point x="89" y="299"/>
      <point x="89" y="270" type="curve" smooth="yes"/>
      <point x="89" y="-1" type="line" smooth="yes"/>
      <point x="89" y="-24"/>
      <point x="102" y="-31"/>
      <point x="112" y="-31" type="curve" smooth="yes"/>
      <point x="224" y="-31" type="line"/>
      <point x="224" y="41" type="line"/>
      <point x="169" y="41" type="line"/>
      <point x="169" y="296" type="line" smooth="yes"/>
      <point x="169" y="314"/>
      <point x="160" y="342"/>
      <point x="140" y="360" type="curve"/>
      <point x="161" y="379"/>
      <point x="169" y="405"/>
      <point x="169" y="424" type="curve" smooth="yes"/>
    </contour>
  </outline>
</glyph>
<glyph name="bar" format="2">
  <advance width="240"/>
  <unicode hex="007C"/>
  <outline>
    <contour>
      <point x="82" y="-130" type="line"/>
      <point x="158" y="-130" type="line"/>
      <point x="158" y="775" type="line"/>
      <point x="82" y="775" type="line"/>
    </contour>
  </outline>
</glyph>
<glyph name="brokenbar" format="2">
  <advance width="242"/>
  <unicode hex="00A6"/>
  <outline>
    <contour>
      <point x="159" y="273" type="line"/>
      <point x="83" y="273" type="line"/>
      <point x="83" y="-130" type="line"/>
      <point x="159" y="-130" type="line"/>
    </contour>
    <contour>
      <point x="159" y="775" type="line"/>
      <point x="83" y="775" type="line"/>
      <point x="83" y="372" type="line"/>
      <point x="159" y="372" type="line"/>
    </contour>
  </outline>
</glyph>
<glyph name="copyright" format="2">
  <advance width="836"/>
  <unicode hex="00A9"/>
  <outline>
    <contour>
      <point x="204" y="-7"/>
      <point x="416" y="-7" type="curve" smooth="yes"/>
      <point x="630" y="-7"/>
      <point x="789" y="148"/>
      <point x="789" y="355" type="curve" smooth="yes"/>
      <point x="789" y="561"/>
      <point x="630" y="715"/>
      <point x="416" y="715" type="curve" smooth="yes"/>
      <point x="204" y="715"/>
      <point x="47" y="561"/>
      <point x="47" y="355" type="curve" smooth="yes"/>
      <point x="47" y="148"/>
    </contour>
    <contour>
      <point x="599" y="37"/>
      <point x="416" y="37" type="curve" smooth="yes"/>
      <point x="231" y="37"/>
      <point x="93" y="175"/>
      <point x="93" y="354" type="curve" smooth="yes"/>
      <point x="93" y="534"/>
      <point x="232" y="671"/>
      <point x="416" y="671" type="curve" smooth="yes"/>
      <point x="603" y="671"/>
      <point x="742" y="534"/>
      <point x="742" y="353" type="curve" smooth="yes"/>
      <point x="742" y="166"/>
    </contour>
    <contour>
      <point x="294" y="121"/>
      <point x="424" y="121" type="curve" smooth="yes"/>
      <point x="529" y="121"/>
      <point x="604" y="187"/>
      <point x="626" y="241" type="curve"/>
      <point x="541" y="267" type="line"/>
      <point x="520" y="223"/>
      <point x="467" y="197"/>
      <point x="421" y="197" type="curve" smooth="yes"/>
      <point x="354" y="197"/>
      <point x="275" y="254"/>
      <point x="275" y="355" type="curve" smooth="yes"/>
      <point x="275" y="434"/>
      <point x="324" y="514"/>
      <point x="419" y="514" type="curve" smooth="yes"/>
      <point x="456" y="514"/>
      <point x="510" y="501"/>
      <point x="535" y="447" type="curve"/>
      <point x="620" y="474" type="line"/>
      <point x="588" y="548"/>
      <point x="512" y="590"/>
      <point x="419" y="590" type="curve" smooth="yes"/>
      <point x="261" y="590"/>
      <point x="185" y="470"/>
      <point x="185" y="355" type="curve" smooth="yes"/>
      <point x="185" y="216"/>
    </contour>
  </outline>
</glyph>
<glyph name="micro" format="2">
  <advance width="628"/>
  <unicode hex="00B5"/>
  <outline>
    <contour>
      <point x="78" y="522" type="line"/>
      <point x="78" y="-212" type="line"/>
      <point x="166" y="-212" type="line"/>
      <point x="161" y="67" type="line"/>
      <point x="176" y="25"/>
      <point x="213" y="-10"/>
      <point x="274" y="-10" type="curve" smooth="yes"/>
      <point x="353" y="-10"/>
      <point x="430" y="48"/>
      <point x="462" y="112" type="curve"/>
      <point x="462" y="57" type="line" smooth="yes"/>
      <point x="462" y="26"/>
      <point x="488" y="-3"/>
      <point x="525" y="-3" type="curve" smooth="yes"/>
      <point x="536" y="-3"/>
      <point x="546" y="-3"/>
      <point x="566" y="0" type="curve"/>
      <point x="566" y="76" type="line"/>
      <point x="546" y="77"/>
      <point x="538" y="86"/>
      <point x="538" y="108" type="curve" smooth="yes"/>
      <point x="538" y="522" type="line"/>
      <point x="450" y="522" type="line"/>
      <point x="450" y="195" type="line"/>
      <point x="419" y="115"/>
      <point x="349" y="66"/>
      <point x="279" y="66" type="curve" smooth="yes"/>
      <point x="203" y="66"/>
      <point x="166" y="119"/>
      <point x="166" y="226" type="curve" smooth="yes"/>
      <point x="166" y="522" type="line"/>
    </contour>
  </outline>
</glyph>
<glyph name="periodcentered" format="2">
  <advance width="202"/>
  <unicode hex="00B7"/>
  <outline>
    <contour>
      <point x="64" y="245" type="line"/>
      <point x="138" y="245" type="line"/>
      <point x="138" y="369" type="line"/>
      <point x="64" y="369" type="line"/>
    </contour>
  </outline>
</glyph>
<glyph name="ordmasculine" format="2">
  <advance width="448"/>
  <unicode hex="00BA"/>
  <anchor x="286" y="0" name="bottom"/>
  <anchor x="287" y="519" name="top"/>
  <outline>
    <contour>
      <point x="114" y="344"/>
      <point x="224" y="344" type="curve" smooth="yes"/>
      <point x="334" y="344"/>
      <point x="406" y="430"/>
      <point x="406" y="527" type="curve" smooth="yes"/>
      <point x="406" y="627"/>
      <point x="333" y="711"/>
      <point x="224" y="711" type="curve" smooth="yes"/>
      <point x="115" y="711"/>
      <point x="42" y="627"/>
      <point x="42" y="527" type="curve" smooth="yes"/>
      <point x="42" y="430"/>
    </contour>
    <contour>
      <point x="114" y="458"/>
      <point x="114" y="526" type="curve" smooth="yes"/>
      <point x="114" y="596"/>
      <point x="163" y="649"/>
      <point x="224" y="649" type="curve" smooth="yes"/>
      <point x="285" y="649"/>
      <point x="334" y="597"/>
      <point x="334" y="528" type="curve" smooth="yes"/>
      <point x="334" y="459"/>
      <point x="285" y="405"/>
      <point x="224" y="405" type="curve" smooth="yes"/>
      <point x="163" y="405"/>
    </contour>
  </outline>
</glyph>
<glyph name="Thorn" format="2">
  <advance width="604"/>
  <unicode hex="00DE"/>
  <outline>
    <contour>
      <point x="488" y="573"/>
      <point x="363" y="573" type="curve"/>
      <point x="175" y="573" type="line"/>
      <point x="175" y="710" type="line"/>
      <point x="85" y="710" type="line"/>
      <point x="85" y="0" type="line"/>
      <point x="175" y="0" type="line"/>
      <point x="175" y="118" type="line"/>
      <point x="369" y="118" type="line" smooth="yes"/>
      <point x="494" y="118"/>
      <point x="578" y="228"/>
      <point x="578" y="346" type="curve" smooth="yes"/>
      <point x="578" y="458"/>
    </contour>
    <contour>
      <point x="440" y="198"/>
      <point x="365" y="198" type="curve"/>
      <point x="175" y="198" type="line"/>
      <point x="175" y="493" type="line"/>
      <point x="359" y="493" type="line" smooth="yes"/>
      <point x="429" y="493"/>
      <point x="488" y="426"/>
      <point x="488" y="346" type="curve" smooth="yes"/>
      <point x="488" y="269"/>
    </contour>
  </outline>
</glyph>
<glyph name="germandbls" format="2">
  <advance width="553"/>
  <unicode hex="00DF"/>
  <outline>
    <contour>
      <point x="241" y="75" type="curve"/>
      <point x="241" y="-6" type="line"/>
      <point x="402" y="-1"/>
      <point x="518" y="71"/>
      <point x="518" y="208" type="curve" smooth="yes"/>
      <point x="518" y="303"/>
      <point x="462" y="382"/>
      <point x="367" y="402" type="curve"/>
      <point x="422" y="417"/>
      <point x="467" y="482"/>
      <point x="467" y="553" type="curve" smooth="yes"/>
      <point x="467" y="649"/>
      <point x="385" y="714"/>
      <point x="278" y="714" type="curve" smooth="yes"/>
      <point x="158" y="714"/>
      <point x="71" y="633"/>
      <point x="71" y="517" type="curve" smooth="yes"/>
      <point x="71" y="0" type="line"/>
      <point x="155" y="0" type="line"/>
      <point x="155" y="503" type="line" smooth="yes"/>
      <point x="155" y="574"/>
      <point x="192" y="638"/>
      <point x="275" y="638" type="curve" smooth="yes"/>
      <point x="332" y="638"/>
      <point x="383" y="607"/>
      <point x="383" y="540" type="curve" smooth="yes"/>
      <point x="383" y="478"/>
      <point x="339" y="437"/>
      <point x="275" y="437" type="curve" smooth="yes"/>
      <point x="257" y="437" type="line"/>
      <point x="257" y="357" type="line"/>
      <point x="276" y="357" type="line" smooth="yes"/>
      <point x="366" y="357"/>
      <point x="427" y="301"/>
      <point x="427" y="215" type="curve" smooth="yes"/>
      <point x="427" y="118"/>
      <point x="350" y="77"/>
    </contour>
  </outline>
</glyph>
<glyph name="dcroat" format="2">
  <advance width="629"/>
  <unicode hex="0111"/>
  <outline>
    <contour>
      <point x="355" y="611" type="line"/>
      <point x="621" y="611" type="line"/>
      <point x="621" y="667" type="line"/>
      <point x="355" y="667" type="line"/>
    </contour>
    <component base="d"/>
  </outline>
</glyph>
<glyph name="idotless" format="2">
  <advance width="230"/>
  <unicode hex="0131"/>
  <anchor x="115" y="522" name="top"/>
  <outline>
    <contour>
      <point x="71" y="0" type="line"/>
      <point x="159" y="0" type="line"/>
      <point x="159" y="522" type="line"/>
      <point x="71" y="522" type="line"/>
    </contour>
  </outline>
</glyph>
<glyph name="kgreenlandic" format="2">
  <advance width="539"/>
  <unicode hex="0138"/>
  <outline>
    <contour>
      <point x="439" y="0" type="line"/>
      <point x="534" y="0" type="line"/>
      <point x="316" y="305" type="line"/>
      <point x="524" y="521" type="line"/>
      <point x="427" y="521" type="line"/>
      <point x="159" y="250" type="line"/>
      <point x="159" y="522" type="line"/>
      <point x="71" y="522" type="line"/>
      <point x="71" y="0" type="line"/>
      <point x="159" y="0" type="line"/>
      <point x="159" y="161" type="line"/>
      <point x="259" y="255" type="line"/>
    </contour>
  </outline>
</glyph>
<glyph name="apostrophe" format="2">
  <advance width="543"/>
  <unicode hex="02BC"/>
  <anchor x="251" y="522" name="_top"/>
  <outline>
    <contour>
      <point x="354" y="730" type="line"/>
      <point x="242" y="730" type="line"/>
      <point x="245" y="692" type="line"/>
      <point x="208" y="629" type="line"/>
      <point x="265" y="609" type="line"/>
    </contour>
  </outline>
</glyph>
<glyph name="apostrophemod" format="2">
  <advance width="232"/>
  <unicode hex="02BC"/>
  <anchor x="91" y="522" name="_top"/>
  <outline>
    <contour>
      <point x="106" y="609" type="line"/>
      <point x="194" y="730" type="line"/>
      <point x="106" y="730" type="line"/>
      <point x="48" y="629" type="line"/>
    </contour>
  </outline>
</glyph>
<glyph name="verticallinelowmod" format="2">
  <advance width="242"/>
  <unicode hex="02CC"/>
  <outline>
    <contour>
      <point x="159" y="273" type="line"/>
      <point x="83" y="273" type="line"/>
      <point x="83" y="-130" type="line"/>
      <point x="159" y="-130" type="line"/>
    </contour>
  </outline>
</glyph>
<glyph name="dieresiscomb" format="2">
  <unicode hex="0308"/>
  <anchor x="184" y="521" name="_top"/>
  <anchor x="184" y="720" name="top"/>
  <outline>
    <contour>
      <point x="66" y="624" type="line"/>
      <point x="140" y="624" type="line"/>
      <point x="140" y="726" type="line"/>
      <point x="66" y="726" type="line"/>
    </contour>
    <contour>
      <point x="228" y="624" type="line"/>
      <point x="302" y="624" type="line"/>
      <point x="302" y="726" type="line"/>
      <point x="228" y="726" type="line"/>
    </contour>
  </outline>
</glyph>
<glyph name="horncomb" format="2">
  <unicode hex="031B"/>
  <anchor x="125" y="492" name="_topright"/>
  <anchor x="125" y="492" name="topright"/>
  <outline>
    <contour>
      <point x="50" y="493" type="line"/>
      <point x="109" y="493"/>
      <point x="160" y="508"/>
      <point x="186" y="539" type="curve" smooth="yes"/>
      <point x="212" y="569"/>
      <point x="218" y="604"/>
      <point x="221" y="641" type="curve"/>
      <point x="149" y="641" type="line"/>
      <point x="148" y="615"/>
      <point x="145" y="597"/>
      <point x="132" y="580" type="curve" smooth="yes"/>
      <point x="119" y="565"/>
      <point x="99" y="557"/>
      <point x="52" y="557" type="curve"/>
    </contour>
  </outline>
</glyph>
<glyph name="ogonekcomb" format="2">
  <unicode hex="0328"/>
  <anchor x="191" y="0" name="_ogonek"/>
  <outline>
    <contour>
      <point x="54" y="-107" type="curve" smooth="yes"/>
      <point x="54" y="-141"/>
      <point x="72" y="-182"/>
      <point x="171" y="-189" type="curve"/>
      <point x="191" y="-133" type="line"/>
      <point x="143" y="-130"/>
      <point x="113" y="-122"/>
      <point x="113" y="-95" type="curve" smooth="yes"/>
      <point x="113" y="-70"/>
      <point x="136" y="-42"/>
      <point x="191" y="0" type="curve"/>
      <point x="171" y="18" type="line"/>
      <point x="147" y="18" type="line"/>
      <point x="83" y="-23"/>
      <point x="54" y="-63"/>
    </contour>
  </outline>
</glyph>
<glyph name="brevebelowcomb" format="2">
  <unicode hex="032E"/>
  <anchor x="148" y="0" name="_bottom"/>
  <anchor x="148" y="-166" name="bottom"/>
  <outline>
    <contour>
      <point x="177" y="-123"/>
      <point x="148" y="-123" type="curve" smooth="yes"/>
      <point x="118" y="-123"/>
      <point x="91" y="-91"/>
      <point x="91" y="-55" type="curve"/>
      <point x="40" y="-55" type="line"/>
      <point x="40" y="-118"/>
      <point x="87" y="-166"/>
      <point x="148" y="-166" type="curve" smooth="yes"/>
      <point x="209" y="-166"/>
      <point x="256" y="-118"/>
      <point x="256" y="-55" type="curve"/>
      <point x="206" y="-55" type="line"/>
      <point x="202" y="-94"/>
    </contour>
  </outline>
</glyph>
<glyph name="macronbelowcomb" format="2">
  <unicode hex="0331"/>
  <anchor x="202" y="0" name="_bottom"/>
  <anchor x="202" y="-143" name="bottom"/>
  <outline>
    <contour>
      <point x="56" y="-143" type="line"/>
      <point x="348" y="-143" type="line"/>
      <point x="348" y="-85" type="line"/>
      <point x="56" y="-85" type="line"/>
    </contour>
  </outline>
</glyph>
<glyph name="Dje-cy" format="2">
  <advance width="740"/>
  <unicode hex="0402"/>
  <outline>
    <contour>
      <point x="471" y="-8" type="curve" smooth="yes"/>
      <point x="608" y="-8"/>
      <point x="695" y="67"/>
      <point x="695" y="216" type="curve" smooth="yes"/>
      <point x="695" y="360"/>
      <point x="599" y="447"/>
      <point x="461" y="447" type="curve" smooth="yes"/>
      <point x="396" y="447"/>
      <point x="329" y="427"/>
      <point x="268" y="389" type="curve"/>
      <point x="268" y="632" type="line"/>
      <point x="544" y="632" type="line"/>
      <point x="544" y="710" type="line"/>
      <point x="17" y="710" type="line"/>
      <point x="17" y="632" type="line"/>
      <point x="180" y="632" type="line"/>
      <point x="180" y="0" type="line"/>
      <point x="268" y="0" type="line"/>
      <point x="268" y="309" type="line"/>
      <point x="328" y="350"/>
      <point x="390" y="371"/>
      <point x="450" y="371" type="curve" smooth="yes"/>
      <point x="539" y="371"/>
      <point x="607" y="317"/>
      <point x="607" y="216" type="curve" smooth="yes"/>
      <point x="607" y="115"/>
      <point x="551" y="68"/>
      <point x="463" y="68" type="curve" smooth="yes"/>
      <point x="442" y="68"/>
      <point x="419" y="73"/>
      <point x="398" y="79" type="curve"/>
      <point x="378" y="5" type="line"/>
      <point x="409" y="-4"/>
      <point x="441" y="-8"/>
    </contour>
  </outline>
</glyph>
<glyph name="E-cy" format="2">
  <advance width="715"/>
  <unicode hex="0404"/>
  <outline>
    <contour>
      <point x="379" y="-6" type="curve" smooth="yes"/>
      <point x="493" y="-6"/>
      <point x="623" y="53"/>
      <point x="670" y="159" type="curve"/>
      <point x="595" y="200" type="line"/>
      <point x="552" y="112"/>
      <point x="461" y="75"/>
      <point x="383" y="75" type="curve" smooth="yes"/>
      <point x="248" y="75"/>
      <point x="141" y="190"/>
      <point x="134" y="326" type="curve"/>
      <point x="448" y="326" type="line"/>
      <point x="448" y="400" type="line"/>
      <point x="136" y="400" type="line"/>
      <point x="148" y="520"/>
      <point x="235" y="633"/>
      <point x="381" y="633" type="curve" smooth="yes"/>
      <point x="457" y="633"/>
      <point x="542" y="603"/>
      <point x="586" y="513" type="curve"/>
      <point x="657" y="559" type="line"/>
      <point x="611" y="650"/>
      <point x="515" y="714"/>
      <point x="385" y="714" type="curve" smooth="yes"/>
      <point x="162" y="714"/>
      <point x="39" y="534"/>
      <point x="39" y="360" type="curve" smooth="yes"/>
      <point x="39" y="178"/>
      <point x="176" y="-6"/>
    </contour>
  </outline>
</glyph>
<glyph name="Nje-cy" format="2">
  <advance width="1014"/>
  <unicode hex="040A"/>
  <outline>
    <contour>
      <point x="85" y="0" type="line"/>
      <point x="175" y="0" type="line"/>
      <point x="175" y="332" type="line"/>
      <point x="520" y="332" type="line"/>
      <point x="520" y="0" type="line"/>
      <point x="754" y="0" type="line" smooth="yes"/>
      <point x="901" y="0"/>
      <point x="979" y="92"/>
      <point x="979" y="211" type="curve" smooth="yes"/>
      <point x="979" y="333"/>
      <point x="900" y="416"/>
      <point x="748" y="416" type="curve" smooth="yes"/>
      <point x="610" y="416" type="line"/>
      <point x="610" y="710" type="line"/>
      <point x="520" y="710" type="line"/>
      <point x="520" y="412" type="line"/>
      <point x="175" y="412" type="line"/>
      <point x="175" y="710" type="line"/>
      <point x="85" y="710" type="line"/>
    </contour>
    <contour>
      <point x="610" y="75" type="line"/>
      <point x="610" y="340" type="line"/>
      <point x="741" y="340" type="line" smooth="yes"/>
      <point x="852" y="340"/>
      <point x="887" y="278"/>
      <point x="887" y="211" type="curve" smooth="yes"/>
      <point x="887" y="139"/>
      <point x="845" y="75"/>
      <point x="743" y="75" type="curve" smooth="yes"/>
    </contour>
  </outline>
</glyph>
<glyph name="Tshe-cy" format="2">
  <advance width="723"/>
  <unicode hex="040B"/>
  <outline>
    <contour>
      <point x="180" y="0" type="line"/>
      <point x="268" y="0" type="line"/>
      <point x="268" y="318" type="line"/>
      <point x="307" y="341"/>
      <point x="374" y="358"/>
      <point x="435" y="358" type="curve" smooth="yes"/>
      <point x="545" y="358"/>
      <point x="590" y="309"/>
      <point x="590" y="203" type="curve" smooth="yes"/>
      <point x="590" y="0" type="line"/>
      <point x="678" y="0" type="line"/>
      <point x="678" y="213" type="line" smooth="yes"/>
      <point x="678" y="372"/>
      <point x="600" y="442"/>
      <point x="448" y="442" type="curve" smooth="yes"/>
      <point x="382" y="442"/>
      <point x="321" y="428"/>
      <point x="268" y="405" type="curve"/>
      <point x="268" y="632" type="line"/>
      <point x="536" y="632" type="line"/>
      <point x="536" y="710" type="line"/>
      <point x="17" y="710" type="line"/>
      <point x="17" y="632" type="line"/>
      <point x="180" y="632" type="line"/>
    </contour>
  </outline>
</glyph>
<glyph name="Be-cy" format="2">
  <advance width="657"/>
  <unicode hex="0411"/>
  <outline>
    <contour>
      <point x="85" y="0" type="line"/>
      <point x="403" y="0" type="line" smooth="yes"/>
      <point x="554" y="0"/>
      <point x="629" y="90"/>
      <point x="629" y="208" type="curve" smooth="yes"/>
      <point x="629" y="326"/>
      <point x="553" y="407"/>
      <point x="397" y="407" type="curve" smooth="yes"/>
      <point x="175" y="407" type="line"/>
      <point x="175" y="631" type="line"/>
      <point x="572" y="631" type="line"/>
      <point x="572" y="710" type="line"/>
      <point x="85" y="710" type="line"/>
    </contour>
    <contour>
      <point x="175" y="79" type="line"/>
      <point x="175" y="335" type="line"/>
      <point x="389" y="335" type="line" smooth="yes"/>
      <point x="505" y="335"/>
      <point x="537" y="275"/>
      <point x="537" y="211" type="curve" smooth="yes"/>
      <point x="537" y="144"/>
      <point x="496" y="79"/>
      <point x="392" y="79" type="curve" smooth="yes"/>
    </contour>
  </outline>
</glyph>
<glyph name="Ge-cy" format="2">
  <advance width="523"/>
  <unicode hex="0413"/>
  <anchor x="116" y="0" name="bottomright"/>
  <anchor x="321" y="710" name="top"/>
  <outline>
    <contour>
      <point x="85" y="0" type="line"/>
      <point x="175" y="0" type="line"/>
      <point x="175" y="630" type="line"/>
      <point x="498" y="630" type="line"/>
      <point x="498" y="710" type="line"/>
      <point x="85" y="710" type="line"/>
    </contour>
  </outline>
</glyph>
<glyph name="Zhe-cy" format="2">
  <advance width="1012"/>
  <unicode hex="0416"/>
  <anchor x="882" y="0" name="bottomright"/>
  <anchor x="506" y="710" name="top"/>
  <outline>
    <contour>
      <point x="25" y="0" type="line"/>
      <point x="129" y="0" type="line"/>
      <point x="373" y="321" type="line"/>
      <point x="461" y="321" type="line"/>
      <point x="461" y="0" type="line"/>
      <point x="551" y="0" type="line"/>
      <point x="551" y="321" type="line"/>
      <point x="638" y="321" type="line"/>
      <point x="882" y="0" type="line"/>
      <point x="987" y="0" type="line"/>
      <point x="711" y="367" type="line"/>
      <point x="969" y="710" type="line"/>
      <point x="864" y="710" type="line"/>
      <point x="636" y="403" type="line"/>
      <point x="551" y="403" type="line"/>
      <point x="551" y="710" type="line"/>
      <point x="461" y="710" type="line"/>
      <point x="461" y="403" type="line"/>
      <point x="375" y="403" type="line"/>
      <point x="148" y="710" type="line"/>
      <point x="42" y="710" type="line"/>
      <point x="300" y="367" type="line"/>
    </contour>
  </outline>
</glyph>
<glyph name="Ii-cy" format="2">
  <advance width="765"/>
  <unicode hex="0418"/>
  <anchor x="585" y="0" name="bottomright"/>
  <anchor x="383" y="710" name="top"/>
  <outline>
    <contour>
      <point x="90" y="0" type="line"/>
      <point x="179" y="0" type="line"/>
      <point x="585" y="574" type="line"/>
      <point x="585" y="0" type="line"/>
      <point x="675" y="0" type="line"/>
      <point x="675" y="710" type="line"/>
      <point x="591" y="710" type="line"/>
      <point x="180" y="125" type="line"/>
      <point x="180" y="710" type="line"/>
      <point x="90" y="710" type="line"/>
    </contour>
  </outline>
</glyph>
<glyph name="Pe-cy" format="2">
  <advance width="718"/>
  <unicode hex="041F"/>
  <anchor x="543" y="0" name="bottomright"/>
  <outline>
    <contour>
      <point x="85" y="0" type="line"/>
      <point x="175" y="0" type="line"/>
      <point x="175" y="630" type="line"/>
      <point x="543" y="630" type="line"/>
      <point x="543" y="0" type="line"/>
      <point x="633" y="0" type="line"/>
      <point x="633" y="710" type="line"/>
      <point x="85" y="710" type="line"/>
    </contour>
  </outline>
</glyph>
<glyph name="Tse-cy" format="2">
  <advance width="737"/>
  <unicode hex="0426"/>
  <outline>
    <contour>
      <point x="622" y="-135" type="line"/>
      <point x="702" y="-135" type="line"/>
      <point x="702" y="80" type="line"/>
      <point x="614" y="80" type="line"/>
      <point x="614" y="710" type="line"/>
      <point x="524" y="710" type="line"/>
      <point x="524" y="80" type="line"/>
      <point x="175" y="80" type="line"/>
      <point x="175" y="710" type="line"/>
      <point x="85" y="710" type="line"/>
      <point x="85" y="0" type="line"/>
      <point x="622" y="0" type="line"/>
    </contour>
  </outline>
</glyph>
<glyph name="Che-cy" format="2">
  <advance width="648"/>
  <unicode hex="0427"/>
  <anchor x="509" y="0" name="bottomright"/>
  <anchor x="300" y="305" name="center"/>
  <anchor x="323" y="710" name="top"/>
  <outline>
    <contour>
      <point x="475" y="0" type="line"/>
      <point x="563" y="0" type="line"/>
      <point x="563" y="710" type="line"/>
      <point x="475" y="710" type="line"/>
      <point x="475" y="377" type="line"/>
      <point x="437" y="357"/>
      <point x="371" y="342"/>
      <point x="312" y="342" type="curve" smooth="yes"/>
      <point x="199" y="342"/>
      <point x="152" y="387"/>
      <point x="152" y="490" type="curve" smooth="yes"/>
      <point x="152" y="710" type="line"/>
      <point x="65" y="710" type="line"/>
      <point x="65" y="480" type="line" smooth="yes"/>
      <point x="65" y="327"/>
      <point x="139" y="260"/>
      <point x="297" y="260" type="curve" smooth="yes"/>
      <point x="377" y="260"/>
      <point x="437" y="280"/>
      <point x="475" y="297" type="curve"/>
    </contour>
  </outline>
</glyph>
<glyph name="Sha-cy" format="2">
  <advance width="972"/>
  <unicode hex="0428"/>
  <anchor x="815" y="0" name="bottomright"/>
  <outline>
    <contour>
      <point x="85" y="0" type="line"/>
      <point x="887" y="0" type="line"/>
      <point x="887" y="710" type="line"/>
      <point x="797" y="710" type="line"/>
      <point x="797" y="80" type="line"/>
      <point x="531" y="80" type="line"/>
      <point x="531" y="710" type="line"/>
      <point x="441" y="710" type="line"/>
      <point x="441" y="80" type="line"/>
      <point x="175" y="80" type="line"/>
      <point x="175" y="710" type="line"/>
      <point x="85" y="710" type="line"/>
    </contour>
  </outline>
</glyph>
<glyph name="Ia-cy" format="2">
  <advance width="653"/>
  <unicode hex="042F"/>
  <outline>
    <contour>
      <point x="65" y="0" type="line"/>
      <point x="169" y="0" type="line"/>
      <point x="343" y="285" type="line"/>
      <point x="351" y="285"/>
      <point x="360" y="285"/>
      <point x="368" y="285" type="curve"/>
      <point x="478" y="285" type="line"/>
      <point x="478" y="0" type="line"/>
      <point x="568" y="0" type="line"/>
      <point x="568" y="710" type="line"/>
      <point x="330" y="710" type="line" smooth="yes"/>
      <point x="188" y="710"/>
      <point x="96" y="618"/>
      <point x="96" y="501" type="curve" smooth="yes"/>
      <point x="96" y="400"/>
      <point x="152" y="321"/>
      <point x="250" y="296" type="curve"/>
    </contour>
    <contour>
      <point x="337" y="363" type="line" smooth="yes"/>
      <point x="242" y="363"/>
      <point x="188" y="419"/>
      <point x="188" y="501" type="curve" smooth="yes"/>
      <point x="188" y="582"/>
      <point x="252" y="632"/>
      <point x="341" y="632" type="curve" smooth="yes"/>
      <point x="478" y="632" type="line"/>
      <point x="478" y="363" type="line"/>
    </contour>
  </outline>
</glyph>
<glyph name="ge-cy" format="2">
  <advance width="411"/>
  <unicode hex="0433"/>
  <anchor x="82" y="0" name="bottomright"/>
  <anchor x="258" y="522" name="top"/>
  <outline>
    <contour>
      <point x="70" y="0" type="line"/>
      <point x="158" y="0" type="line"/>
      <point x="158" y="444" type="line"/>
      <point x="392" y="444" type="line"/>
      <point x="392" y="522" type="line"/>
      <point x="70" y="522" type="line"/>
    </contour>
  </outline>
</glyph>
<glyph name="ii-cy" format="2">
  <advance width="600"/>
  <unicode hex="0438"/>
  <anchor x="442" y="0" name="bottomright"/>
  <anchor x="301" y="522" name="top"/>
  <outline>
    <contour>
      <point x="70" y="0" type="line"/>
      <point x="154" y="0" type="line"/>
      <point x="442" y="395" type="line"/>
      <point x="442" y="0" type="line"/>
      <point x="530" y="0" type="line"/>
      <point x="530" y="522" type="line"/>
      <point x="450" y="522" type="line"/>
      <point x="158" y="118" type="line"/>
      <point x="158" y="521" type="line"/>
      <point x="70" y="521" type="line"/>
    </contour>
  </outline>
</glyph>
<glyph name="em-cy" format="2">
  <advance width="710"/>
  <unicode hex="043C"/>
  <anchor x="555" y="0" name="bottomright"/>
  <outline>
    <contour>
      <point x="70" y="0" type="line"/>
      <point x="154" y="0" type="line"/>
      <point x="154" y="395" type="line"/>
      <point x="327" y="93" type="line"/>
      <point x="383" y="93" type="line"/>
      <point x="555" y="395" type="line"/>
      <point x="555" y="0" type="line"/>
      <point x="639" y="0" type="line"/>
      <point x="639" y="522" type="line"/>
      <point x="550" y="522" type="line"/>
      <point x="355" y="180" type="line"/>
      <point x="161" y="522" type="line"/>
      <point x="70" y="522" type="line"/>
    </contour>
  </outline>
</glyph>
<glyph name="pe-cy" format="2">
  <advance width="574"/>
  <unicode hex="043F"/>
  <anchor x="415" y="0" name="bottomright"/>
  <outline>
    <contour>
      <point x="70" y="0" type="line"/>
      <point x="158" y="0" type="line"/>
      <point x="158" y="444" type="line"/>
      <point x="415" y="444" type="line"/>
      <point x="415" y="0" type="line"/>
      <point x="503" y="0" type="line"/>
      <point x="503" y="522" type="line"/>
      <point x="70" y="522" type="line"/>
    </contour>
  </outline>
</glyph>
<glyph name="te-cy" format="2">
  <advance width="483"/>
  <unicode hex="0442"/>
  <anchor x="198" y="0" name="bottomright"/>
  <outline>
    <contour>
      <point x="198" y="0" type="line"/>
      <point x="286" y="0" type="line"/>
      <point x="286" y="444" type="line"/>
      <point x="466" y="444" type="line"/>
      <point x="466" y="522" type="line"/>
      <point x="18" y="522" type="line"/>
      <point x="18" y="444" type="line"/>
      <point x="198" y="444" type="line"/>
    </contour>
  </outline>
</glyph>
<glyph name="u-cy" format="2">
  <advance width="545"/>
  <unicode hex="0443"/>
  <guideline x="361" y="306" angle="69.8365"/>
  <guideline x="405" y="219" angle="68.101"/>
  <anchor x="272" y="522" name="top"/>
  <outline>
    <contour>
      <point x="136" y="-219" type="curve" smooth="yes"/>
      <point x="194" y="-219"/>
      <point x="247" y="-175"/>
      <point x="283" y="-85" type="curve" smooth="yes"/>
      <point x="527" y="522" type="line"/>
      <point x="440" y="522" type="line"/>
      <point x="281" y="89" type="line"/>
      <point x="105" y="522" type="line"/>
      <point x="12" y="522" type="line"/>
      <point x="241" y="5" type="line"/>
      <point x="216" y="-58" type="line" smooth="yes"/>
      <point x="191" y="-119"/>
      <point x="162" y="-149"/>
      <point x="130" y="-149" type="curve" smooth="yes"/>
      <point x="119" y="-149"/>
      <point x="108" y="-146"/>
      <point x="96" y="-139" type="curve"/>
      <point x="66" y="-199" type="line"/>
      <point x="90" y="-212"/>
      <point x="113" y="-219"/>
    </contour>
  </outline>
</glyph>
<glyph name="shcha-cy" format="2">
  <advance width="845"/>
  <unicode hex="0449"/>
  <outline>
    <contour>
      <point x="740" y="-123" type="line"/>
      <point x="818" y="-123" type="line"/>
      <point x="818" y="78" type="line"/>
      <point x="746" y="78" type="line"/>
      <point x="746" y="522" type="line"/>
      <point x="658" y="522" type="line"/>
      <point x="658" y="78" type="line"/>
      <point x="453" y="78" type="line"/>
      <point x="453" y="522" type="line"/>
      <point x="364" y="522" type="line"/>
      <point x="364" y="78" type="line"/>
      <point x="158" y="78" type="line"/>
      <point x="158" y="522" type="line"/>
      <point x="70" y="522" type="line"/>
      <point x="70" y="0" type="line"/>
      <point x="740" y="0" type="line"/>
    </contour>
  </outline>
</glyph>
<glyph name="dje-cy" format="2">
  <advance width="570"/>
  <unicode hex="0452"/>
  <outline>
    <contour>
      <point x="323" y="-191" type="curve" smooth="yes"/>
      <point x="475" y="-191"/>
      <point x="544" y="-27"/>
      <point x="544" y="151" type="curve" smooth="yes"/>
      <point x="544" y="334"/>
      <point x="463" y="430"/>
      <point x="335" y="430" type="curve" smooth="yes"/>
      <point x="259" y="430"/>
      <point x="200" y="395"/>
      <point x="158" y="332" type="curve"/>
      <point x="158" y="522" type="line"/>
      <point x="387" y="522" type="line"/>
      <point x="387" y="578" type="line"/>
      <point x="158" y="578" type="line"/>
      <point x="158" y="730" type="line"/>
      <point x="70" y="730" type="line"/>
      <point x="70" y="578" type="line"/>
      <point x="-6" y="578" type="line"/>
      <point x="-6" y="522" type="line"/>
      <point x="70" y="522" type="line"/>
      <point x="70" y="0" type="line"/>
      <point x="158" y="0" type="line"/>
      <point x="158" y="239" type="line"/>
      <point x="184" y="308"/>
      <point x="234" y="351"/>
      <point x="313" y="351" type="curve" smooth="yes"/>
      <point x="419" y="351"/>
      <point x="456" y="275"/>
      <point x="456" y="134" type="curve" smooth="yes"/>
      <point x="456" y="-9"/>
      <point x="418" y="-118"/>
      <point x="318" y="-118" type="curve" smooth="yes"/>
      <point x="294" y="-118"/>
      <point x="266" y="-105"/>
      <point x="252" y="-93" type="curve"/>
      <point x="191" y="-138" type="line"/>
      <point x="207" y="-154"/>
      <point x="250" y="-191"/>
    </contour>
  </outline>
</glyph>
<glyph name="e-cy" format="2">
  <advance width="562"/>
  <unicode hex="0454"/>
  <outline>
    <contour>
      <point x="300" y="-9" type="curve" smooth="yes"/>
      <point x="396" y="-9"/>
      <point x="487" y="37"/>
      <point x="527" y="117" type="curve"/>
      <point x="456" y="150" type="line"/>
      <point x="423" y="90"/>
      <point x="365" y="62"/>
      <point x="306" y="62" type="curve" smooth="yes"/>
      <point x="210" y="62"/>
      <point x="136" y="140"/>
      <point x="127" y="235" type="curve"/>
      <point x="352" y="235" type="line"/>
      <point x="352" y="295" type="line"/>
      <point x="127" y="295" type="line"/>
      <point x="138" y="379"/>
      <point x="201" y="459"/>
      <point x="304" y="459" type="curve" smooth="yes"/>
      <point x="363" y="459"/>
      <point x="417" y="436"/>
      <point x="450" y="376" type="curve"/>
      <point x="517" y="411" type="line"/>
      <point x="479" y="483"/>
      <point x="404" y="531"/>
      <point x="302" y="531" type="curve" smooth="yes"/>
      <point x="131" y="531"/>
      <point x="36" y="397"/>
      <point x="36" y="263" type="curve" smooth="yes"/>
      <point x="36" y="125"/>
      <point x="138" y="-9"/>
    </contour>
  </outline>
</glyph>
<glyph name="izhitsa-cy" format="2">
  <advance width="568"/>
  <unicode hex="0475"/>
  <outline>
    <contour>
      <point x="222" y="0" type="line"/>
      <point x="316" y="0" type="line"/>
      <point x="472" y="388" type="line" smooth="yes"/>
      <point x="488" y="436"/>
      <point x="506" y="453"/>
      <point x="547" y="453" type="curve" smooth="yes"/>
      <point x="576" y="453" type="line"/>
      <point x="576" y="522" type="line"/>
      <point x="532" y="522" type="line" smooth="yes"/>
      <point x="458" y="522"/>
      <point x="423" y="490"/>
      <point x="400" y="417" type="curve" smooth="yes"/>
      <point x="270" y="81" type="line"/>
      <point x="105" y="522" type="line"/>
      <point x="16" y="522" type="line"/>
    </contour>
  </outline>
</glyph>
<glyph name="Semisoftsign-cy" format="2">
  <advance width="648"/>
  <unicode hex="048C"/>
  <outline>
    <contour>
      <point x="19" y="572" type="line"/>
      <point x="362" y="572" type="line"/>
      <point x="362" y="628" type="line"/>
      <point x="19" y="628" type="line"/>
    </contour>
    <contour>
      <point x="118" y="0" type="line"/>
      <point x="384" y="0" type="line" smooth="yes"/>
      <point x="533" y="0"/>
      <point x="613" y="96"/>
      <point x="613" y="221" type="curve" smooth="yes"/>
      <point x="613" y="352"/>
      <point x="533" y="441"/>
      <point x="378" y="441" type="curve" smooth="yes"/>
      <point x="208" y="441" type="line"/>
      <point x="208" y="710" type="line"/>
      <point x="118" y="710" type="line"/>
    </contour>
    <contour>
      <point x="208" y="75" type="line"/>
      <point x="208" y="366" type="line"/>
      <point x="371" y="366" type="line" smooth="yes"/>
      <point x="485" y="366"/>
      <point x="521" y="296"/>
      <point x="521" y="221" type="curve" smooth="yes"/>
      <point x="521" y="144"/>
      <point x="478" y="75"/>
      <point x="372" y="75" type="curve" smooth="yes"/>
    </contour>
  </outline>
</glyph>
<glyph name="semisoftsign-cy" format="2">
  <advance width="561"/>
  <unicode hex="048D"/>
  <outline>
    <contour>
      <point x="131" y="0" type="line"/>
      <point x="355" y="0" type="line" smooth="yes"/>
      <point x="474" y="0"/>
      <point x="536" y="76"/>
      <point x="536" y="176" type="curve" smooth="yes"/>
      <point x="536" y="276"/>
      <point x="472" y="344"/>
      <point x="349" y="344" type="curve" smooth="yes"/>
      <point x="219" y="344" type="line"/>
      <point x="219" y="730" type="line"/>
      <point x="131" y="730" type="line"/>
    </contour>
    <contour>
      <point x="219" y="69" type="line"/>
      <point x="219" y="275" type="line"/>
      <point x="341" y="275" type="line" smooth="yes"/>
      <point x="421" y="275"/>
      <point x="447" y="228"/>
      <point x="447" y="174" type="curve" smooth="yes"/>
      <point x="447" y="118"/>
      <point x="416" y="69"/>
      <point x="343" y="69" type="curve" smooth="yes"/>
    </contour>
    <contour>
      <point x="25" y="453" type="line"/>
      <point x="384" y="453" type="line"/>
      <point x="384" y="522" type="line"/>
      <point x="25" y="522" type="line"/>
    </contour>
  </outline>
</glyph>
<glyph name="gheupturn-cy" format="2">
  <advance width="411"/>
  <unicode hex="0491"/>
  <outline>
    <contour>
      <point x="70" y="0" type="line"/>
      <point x="158" y="0" type="line"/>
      <point x="158" y="444" type="line"/>
      <point x="392" y="444" type="line"/>
      <point x="392" y="645" type="line"/>
      <point x="313" y="645" type="line"/>
      <point x="313" y="522" type="line"/>
      <point x="70" y="522" type="line"/>
    </contour>
  </outline>
</glyph>
<glyph name="Ghemiddlehook-cy" format="2">
  <advance width="647"/>
  <unicode hex="0494"/>
  <outline>
    <contour>
      <point x="378" y="-124" type="curve" smooth="yes"/>
      <point x="516" y="-124"/>
      <point x="602" y="-39"/>
      <point x="602" y="130" type="curve" smooth="yes"/>
      <point x="602" y="294"/>
      <point x="518" y="391"/>
      <point x="363" y="391" type="curve" smooth="yes"/>
      <point x="300" y="391"/>
      <point x="234" y="375"/>
      <point x="175" y="343" type="curve"/>
      <point x="175" y="263" type="line"/>
      <point x="235" y="297"/>
      <point x="289" y="315"/>
      <point x="349" y="315" type="curve" smooth="yes"/>
      <point x="460" y="315"/>
      <point x="514" y="249"/>
      <point x="514" y="130" type="curve" smooth="yes"/>
      <point x="514" y="8"/>
      <point x="457" y="-48"/>
      <point x="371" y="-48" type="curve" smooth="yes"/>
      <point x="349" y="-48"/>
      <point x="327" y="-43"/>
      <point x="306" y="-37" type="curve"/>
      <point x="285" y="-111" type="line"/>
      <point x="317" y="-120"/>
      <point x="348" y="-124"/>
    </contour>
    <component base="Ge-cy"/>
  </outline>
</glyph>
<glyph name="Zhedescender-cy" format="2">
  <advance width="998"/>
  <unicode hex="0496"/>
  <outline>
    <contour>
      <point x="908" y="-135" type="line"/>
      <point x="988" y="-135" type="line"/>
      <point x="988" y="80" type="line"/>
      <point x="863" y="80" type="line"/>
      <point x="863" y="0" type="line"/>
      <point x="908" y="0" type="line"/>
    </contour>
    <component base="Zhe-cy"/>
  </outline>
</glyph>
<glyph name="Zedescender-cy" format="2">
  <advance width="564"/>
  <unicode hex="0498"/>
  <outline>
    <contour>
      <point x="241" y="-138" type="line"/>
      <point x="317" y="-138" type="line"/>
      <point x="317" y="60" type="line"/>
      <point x="241" y="53" type="line"/>
    </contour>
    <component base="Ze-cy"/>
  </outline>
</glyph>
<glyph name="kadescender-cy" format="2">
  <advance width="534"/>
  <unicode hex="049B"/>
  <outline>
    <contour>
      <point x="446" y="-123" type="line"/>
      <point x="524" y="-123" type="line"/>
      <point x="524" y="77" type="line"/>
      <point x="400" y="77" type="line"/>
      <point x="400" y="0" type="line"/>
      <point x="446" y="0" type="line"/>
    </contour>
    <component base="ka-cy"/>
  </outline>
</glyph>
<glyph name="Kastroke-cy" format="2">
  <advance width="664"/>
  <unicode hex="049E"/>
  <outline>
    <contour>
      <point x="19" y="572" type="line"/>
      <point x="272" y="572" type="line"/>
      <point x="272" y="628" type="line"/>
      <point x="19" y="628" type="line"/>
    </contour>
    <contour>
      <point x="98" y="0" type="line"/>
      <point x="188" y="0" type="line"/>
      <point x="188" y="321" type="line"/>
      <point x="285" y="321" type="line"/>
      <point x="529" y="0" type="line"/>
      <point x="639" y="0" type="line"/>
      <point x="357" y="366" type="line"/>
      <point x="621" y="710" type="line"/>
      <point x="517" y="710" type="line"/>
      <point x="283" y="403" type="line"/>
      <point x="188" y="403" type="line"/>
      <point x="188" y="710" type="line"/>
      <point x="98" y="710" type="line"/>
    </contour>
  </outline>
</glyph>
<glyph name="Pemiddlehook-cy" format="2">
  <advance width="1085"/>
  <unicode hex="04A6"/>
  <outline>
    <contour>
      <point x="85" y="0" type="line"/>
      <point x="175" y="0" type="line"/>
      <point x="175" y="630" type="line"/>
      <point x="523" y="630" type="line"/>
      <point x="523" y="0" type="line"/>
      <point x="613" y="0" type="line"/>
      <point x="613" y="710" type="line"/>
      <point x="85" y="710" type="line"/>
    </contour>
    <contour>
      <point x="816" y="-124" type="curve" smooth="yes"/>
      <point x="954" y="-124"/>
      <point x="1040" y="-39"/>
      <point x="1040" y="130" type="curve" smooth="yes"/>
      <point x="1040" y="294"/>
      <point x="956" y="391"/>
      <point x="801" y="391" type="curve" smooth="yes"/>
      <point x="738" y="391"/>
      <point x="672" y="375"/>
      <point x="613" y="343" type="curve"/>
      <point x="613" y="263" type="line"/>
      <point x="673" y="297"/>
      <point x="727" y="315"/>
      <point x="787" y="315" type="curve" smooth="yes"/>
      <point x="898" y="315"/>
      <point x="952" y="249"/>
      <point x="952" y="130" type="curve" smooth="yes"/>
      <point x="952" y="8"/>
      <point x="895" y="-48"/>
      <point x="809" y="-48" type="curve" smooth="yes"/>
      <point x="787" y="-48"/>
      <point x="765" y="-43"/>
      <point x="744" y="-37" type="curve"/>
      <point x="723" y="-111" type="line"/>
      <point x="755" y="-120"/>
      <point x="786" y="-124"/>
    </contour>
  </outline>
</glyph>
<glyph name="esdescender-cy" format="2">
  <advance width="554"/>
  <unicode hex="04AB"/>
  <outline>
    <contour>
      <point x="261" y="-123" type="line"/>
      <point x="337" y="-123" type="line"/>
      <point x="337" y="33" type="line"/>
      <point x="261" y="33" type="line"/>
    </contour>
    <contour>
      <point x="302" y="-10" type="curve" smooth="yes"/>
      <point x="407" y="-10"/>
      <point x="494" y="45"/>
      <point x="525" y="121" type="curve"/>
      <point x="439" y="147" type="line"/>
      <point x="423" y="103"/>
      <point x="361" y="66"/>
      <point x="300" y="66" type="curve" smooth="yes"/>
      <point x="205" y="66"/>
      <point x="126" y="152"/>
      <point x="126" y="262" type="curve" smooth="yes"/>
      <point x="126" y="373"/>
      <point x="202" y="455"/>
      <point x="299" y="455" type="curve" smooth="yes"/>
      <point x="357" y="455"/>
      <point x="408" y="426"/>
      <point x="435" y="377" type="curve"/>
      <point x="521" y="404" type="line"/>
      <point x="483" y="481"/>
      <point x="404" y="531"/>
      <point x="301" y="531" type="curve" smooth="yes"/>
      <point x="142" y="531"/>
      <point x="36" y="409"/>
      <point x="36" y="262" type="curve" smooth="yes"/>
      <point x="36" y="115"/>
      <point x="145" y="-10"/>
    </contour>
  </outline>
</glyph>
<glyph name="Ustraitstroke-cy" format="2">
  <advance width="640"/>
  <unicode hex="04B0"/>
  <outline>
    <contour>
      <point x="275" y="0" type="line"/>
      <point x="364" y="0" type="line"/>
      <point x="364" y="182" type="line"/>
      <point x="514" y="182" type="line"/>
      <point x="514" y="242" type="line"/>
      <point x="364" y="242" type="line"/>
      <point x="364" y="259" type="line"/>
      <point x="635" y="710" type="line"/>
      <point x="536" y="710" type="line"/>
      <point x="319" y="340" type="line"/>
      <point x="104" y="710" type="line"/>
      <point x="6" y="710" type="line"/>
      <point x="275" y="261" type="line"/>
      <point x="275" y="242" type="line"/>
      <point x="125" y="242" type="line"/>
      <point x="125" y="182" type="line"/>
      <point x="275" y="182" type="line"/>
    </contour>
  </outline>
</glyph>
<glyph name="hadescender-cy" format="2">
  <advance width="542"/>
  <unicode hex="04B3"/>
  <outline>
    <contour>
      <point x="437" y="-123" type="line"/>
      <point x="515" y="-123" type="line"/>
      <point x="515" y="77" type="line"/>
      <point x="411" y="77" type="line"/>
      <point x="411" y="0" type="line"/>
      <point x="437" y="0" type="line"/>
    </contour>
    <component base="ha-cy" xOffset="-4"/>
  </outline>
</glyph>
<glyph name="Chedescenderabkhasian-cy" format="2">
  <advance width="878"/>
  <unicode hex="04BE"/>
  <outline>
    <contour>
      <point x="431" y="-135" type="line"/>
      <point x="511" y="-135" type="line"/>
      <point x="511" y="20" type="line"/>
      <point x="431" y="0" type="line"/>
    </contour>
    <component base="Cheabkhasian-cy" xOffset="12"/>
  </outline>
</glyph>
<glyph name="chedescenderabkhasian-cy" format="2">
  <advance width="681"/>
  <unicode hex="04BF"/>
  <outline>
    <contour>
      <point x="343" y="-123" type="line"/>
      <point x="421" y="-123" type="line"/>
      <point x="421" y="37" type="line"/>
      <point x="343" y="0" type="line"/>
    </contour>
    <component base="cheabkhasian-cy" xOffset="9"/>
  </outline>
</glyph>
<glyph name="Dzeabkhasian-cy" format="2">
  <advance width="574"/>
  <unicode hex="04E0"/>
  <guideline x="288" y="482" angle="90"/>
  <outline>
    <contour>
      <point x="278" y="431" type="curve"/>
      <point x="195" y="431" type="line"/>
      <point x="195" y="360" type="line"/>
      <point x="268" y="360" type="line" smooth="yes"/>
      <point x="386" y="360"/>
      <point x="445" y="300"/>
      <point x="445" y="216" type="curve" smooth="yes"/>
      <point x="445" y="126"/>
      <point x="385" y="68"/>
      <point x="290" y="68" type="curve" smooth="yes"/>
      <point x="210" y="68"/>
      <point x="149" y="101"/>
      <point x="114" y="157" type="curve"/>
      <point x="45" y="115" type="line"/>
      <point x="93" y="37"/>
      <point x="183" y="-8"/>
      <point x="292" y="-8" type="curve" smooth="yes"/>
      <point x="431" y="-8"/>
      <point x="533" y="76"/>
      <point x="533" y="218" type="curve" smooth="yes"/>
      <point x="533" y="319"/>
      <point x="468" y="431"/>
    </contour>
    <contour>
      <point x="195" y="431" type="line"/>
      <point x="250" y="393" type="line"/>
      <point x="497" y="640" type="line"/>
      <point x="497" y="710" type="line"/>
      <point x="85" y="710" type="line"/>
      <point x="85" y="630" type="line"/>
      <point x="392" y="630" type="line"/>
    </contour>
  </outline>
</glyph>
<glyph name="Obarred-cy" format="2">
  <advance width="760"/>
  <unicode hex="04E8"/>
  <outline>
    <contour>
      <point x="98" y="328" type="line"/>
      <point x="674" y="328" type="line"/>
      <point x="674" y="394" type="line"/>
      <point x="98" y="394" type="line"/>
    </contour>
    <component base="O"/>
  </outline>
</glyph>
<glyph name="obarred-cy" format="2">
  <advance width="597"/>
  <unicode hex="04E9"/>
  <outline>
    <contour>
      <point x="90" y="244" type="line"/>
      <point x="528" y="244" type="line"/>
      <point x="528" y="286" type="line"/>
      <point x="90" y="286" type="line"/>
    </contour>
    <component base="o"/>
  </outline>
</glyph>
<glyph name="Gestrokehook-cy" format="2">
  <advance width="549"/>
  <unicode hex="04FA"/>
  <outline>
    <contour>
      <point x="142" y="-220" type="curve" smooth="yes"/>
      <point x="249" y="-220"/>
      <point x="317" y="-137"/>
      <point x="317" y="0" type="curve" smooth="yes"/>
      <point x="317" y="80" type="line"/>
      <point x="118" y="80" type="line"/>
      <point x="118" y="0" type="line"/>
      <point x="236" y="0" type="line"/>
      <point x="236" y="-85"/>
      <point x="205" y="-137"/>
      <point x="134" y="-137" type="curve" smooth="yes"/>
      <point x="117" y="-137"/>
      <point x="97" y="-133"/>
      <point x="74" y="-126" type="curve"/>
      <point x="51" y="-203" type="line"/>
      <point x="84" y="-215"/>
      <point x="114" y="-220"/>
    </contour>
    <component base="Ghestroke-cy" xOffset="18"/>
  </outline>
</glyph>
<glyph name="reversedze-cy" format="2">
  <advance width="453"/>
  <unicode hex="0511"/>
  <outline>
    <contour>
      <point x="236" y="-7" type="curve" smooth="yes"/>
      <point x="337" y="-7"/>
      <point x="408" y="33"/>
      <point x="445" y="101" type="curve"/>
      <point x="373" y="133" type="line"/>
      <point x="349" y="90"/>
      <point x="306" y="65"/>
      <point x="240" y="65" type="curve" smooth="yes"/>
      <point x="164" y="65"/>
      <point x="117" y="97"/>
      <point x="117" y="153" type="curve" smooth="yes"/>
      <point x="117" y="197"/>
      <point x="154" y="235"/>
      <point x="218" y="235" type="curve" smooth="yes"/>
      <point x="281" y="235" type="line"/>
      <point x="281" y="304" type="line"/>
      <point x="215" y="304" type="line" smooth="yes"/>
      <point x="163" y="304"/>
      <point x="122" y="327"/>
      <point x="122" y="382" type="curve" smooth="yes"/>
      <point x="122" y="429"/>
      <point x="169" y="458"/>
      <point x="239" y="458" type="curve" smooth="yes"/>
      <point x="300" y="458"/>
      <point x="336" y="436"/>
      <point x="358" y="394" type="curve"/>
      <point x="420" y="430" type="line"/>
      <point x="387" y="493"/>
      <point x="327" y="530"/>
      <point x="234" y="530" type="curve" smooth="yes"/>
      <point x="129" y="530"/>
      <point x="43" y="478"/>
      <point x="43" y="391" type="curve" smooth="yes"/>
      <point x="43" y="332"/>
      <point x="71" y="298"/>
      <point x="131" y="269" type="curve"/>
      <point x="69" y="250"/>
      <point x="35" y="207"/>
      <point x="35" y="145" type="curve" smooth="yes"/>
      <point x="35" y="49"/>
      <point x="119" y="-7"/>
    </contour>
  </outline>
</glyph>
<glyph name="figuredash" format="2">
  <advance width="500"/>
  <unicode hex="2012"/>
  <outline>
    <contour>
      <point x="64" y="233" type="line"/>
      <point x="436" y="233" type="line"/>
      <point x="436" y="313" type="line"/>
      <point x="64" y="313" type="line"/>
    </contour>
  </outline>
</glyph>
<glyph name="quoteright" format="2">
  <advance width="200"/>
  <unicode hex="2019"/>
  <outline>
    <contour>
      <point x="71" y="501" type="line"/>
      <point x="114" y="501" type="line"/>
      <point x="144" y="616" type="line"/>
      <point x="144" y="730" type="line"/>
      <point x="61" y="730" type="line"/>
      <point x="61" y="616" type="line"/>
      <point x="91" y="616" type="line"/>
    </contour>
  </outline>
</glyph>
<glyph name="fivesuperior" format="2">
  <advance width="380"/>
  <unicode hex="2075"/>
  <outline>
    <contour>
      <point x="281" y="664"/>
      <point x="193" y="664" type="curve" smooth="yes"/>
      <point x="156" y="664"/>
      <point x="125" y="654"/>
      <point x="104" y="638" type="curve"/>
      <point x="134" y="755" type="line"/>
      <point x="322" y="755" type="line"/>
      <point x="322" y="810" type="line"/>
      <point x="93" y="810" type="line"/>
      <point x="86" y="768"/>
      <point x="50" y="630"/>
      <point x="39" y="574" type="curve"/>
      <point x="89" y="574" type="line"/>
      <point x="109" y="602"/>
      <point x="149" y="621"/>
      <point x="188" y="621" type="curve" smooth="yes"/>
      <point x="238" y="621"/>
      <point x="292" y="592"/>
      <point x="292" y="536" type="curve" smooth="yes"/>
      <point x="292" y="484"/>
      <point x="245" y="452"/>
      <point x="184" y="452" type="curve" smooth="yes"/>
      <point x="132" y="452"/>
      <point x="89" y="473"/>
      <point x="64" y="507" type="curve"/>
      <point x="29" y="473" type="line"/>
      <point x="56" y="428"/>
      <point x="114" y="399"/>
      <point x="181" y="399" type="curve" smooth="yes"/>
      <point x="275" y="399"/>
      <point x="349" y="454"/>
      <point x="349" y="535" type="curve" smooth="yes"/>
      <point x="349" y="611"/>
    </contour>
  </outline>
</glyph>
<glyph name="zeroinferior" format="2">
  <advance width="467"/>
  <unicode hex="2080"/>
  <outline>
    <contour>
      <point x="103" y="-85"/>
      <point x="234" y="-85" type="curve" smooth="yes"/>
      <point x="356" y="-85"/>
      <point x="431" y="21"/>
      <point x="431" y="120" type="curve" smooth="yes"/>
      <point x="431" y="209"/>
      <point x="364" y="326"/>
      <point x="234" y="326" type="curve" smooth="yes"/>
      <point x="112" y="326"/>
      <point x="36" y="218"/>
      <point x="36" y="120" type="curve" smooth="yes"/>
      <point x="36" y="29"/>
    </contour>
    <contour>
      <point x="93" y="50"/>
      <point x="93" y="120" type="curve" smooth="yes"/>
      <point x="93" y="184"/>
      <point x="138" y="271"/>
      <point x="234" y="271" type="curve" smooth="yes"/>
      <point x="324" y="271"/>
      <point x="375" y="191"/>
      <point x="375" y="120" type="curve" smooth="yes"/>
      <point x="375" y="57"/>
      <point x="330" y="-30"/>
      <point x="234" y="-30" type="curve" smooth="yes"/>
      <point x="142" y="-30"/>
    </contour>
  </outline>
</glyph>
<glyph name="peseta" format="2">
  <advance width="1265"/>
  <unicode hex="20A7"/>
  <outline>
    <contour>
      <point x="85" y="0" type="line"/>
      <point x="175" y="0" type="line"/>
      <point x="175" y="255" type="line"/>
      <point x="267" y="255" type="line" smooth="yes"/>
      <point x="392" y="255"/>
      <point x="476" y="366"/>
      <point x="476" y="483" type="curve" smooth="yes"/>
      <point x="476" y="595"/>
      <point x="386" y="710"/>
      <point x="261" y="710" type="curve" smooth="yes"/>
      <point x="85" y="710" type="line"/>
    </contour>
    <contour>
      <point x="175" y="335" type="line"/>
      <point x="175" y="630" type="line"/>
      <point x="256" y="630" type="line" smooth="yes"/>
      <point x="325" y="630"/>
      <point x="385" y="567"/>
      <point x="385" y="483" type="curve" smooth="yes"/>
      <point x="385" y="402"/>
      <point x="336" y="335"/>
      <point x="262" y="335" type="curve" smooth="yes"/>
    </contour>
    <contour>
      <point x="832" y="26" type="curve"/>
      <point x="811" y="96" type="line"/>
      <point x="801" y="90"/>
      <point x="769" y="74"/>
      <point x="734" y="74" type="curve" smooth="yes"/>
      <point x="703" y="74"/>
      <point x="675" y="91"/>
      <point x="675" y="129" type="curve" smooth="yes"/>
      <point x="675" y="453" type="line"/>
      <point x="792" y="453" type="line"/>
      <point x="792" y="522" type="line"/>
      <point x="675" y="522" type="line"/>
      <point x="675" y="696" type="line"/>
      <point x="587" y="696" type="line"/>
      <point x="587" y="522" type="line"/>
      <point x="516" y="522" type="line"/>
      <point x="516" y="453" type="line"/>
      <point x="587" y="453" type="line"/>
      <point x="587" y="102" type="line" smooth="yes"/>
      <point x="587" y="27"/>
      <point x="641" y="-7"/>
      <point x="705" y="-7" type="curve" smooth="yes"/>
      <point x="761" y="-7"/>
      <point x="810" y="16"/>
    </contour>
    <contour>
      <point x="1050" y="-10" type="curve" smooth="yes"/>
      <point x="1159" y="-10"/>
      <point x="1231" y="48"/>
      <point x="1231" y="147" type="curve" smooth="yes"/>
      <point x="1231" y="243"/>
      <point x="1163" y="266"/>
      <point x="1059" y="300" type="curve" smooth="yes"/>
      <point x="991" y="322"/>
      <point x="954" y="336"/>
      <point x="954" y="386" type="curve" smooth="yes"/>
      <point x="954" y="445"/>
      <point x="1006" y="462"/>
      <point x="1055" y="462" type="curve" smooth="yes"/>
      <point x="1109" y="462"/>
      <point x="1152" y="441"/>
      <point x="1189" y="399" type="curve"/>
      <point x="1224" y="460" type="line"/>
      <point x="1184" y="507"/>
      <point x="1128" y="531"/>
      <point x="1059" y="531" type="curve" smooth="yes"/>
      <point x="955" y="531"/>
      <point x="881" y="475"/>
      <point x="881" y="376" type="curve" smooth="yes"/>
      <point x="881" y="294"/>
      <point x="932" y="260"/>
      <point x="1028" y="229" type="curve" smooth="yes"/>
      <point x="1106" y="204"/>
      <point x="1155" y="198"/>
      <point x="1155" y="141" type="curve" smooth="yes"/>
      <point x="1155" y="88"/>
      <point x="1111" y="60"/>
      <point x="1047" y="60" type="curve" smooth="yes"/>
      <point x="991" y="60"/>
      <point x="938" y="82"/>
      <point x="885" y="138" type="curve"/>
      <point x="855" y="76" type="line"/>
      <point x="904" y="19"/>
      <point x="973" y="-10"/>
    </contour>
  </outline>
</glyph>
<glyph name="kip" format="2">
  <advance width="652"/>
  <unicode hex="20AD"/>
  <outline>
    <contour>
      <point x="29" y="122" type="line"/>
      <point x="608" y="122" type="line"/>
      <point x="608" y="190" type="line"/>
      <point x="29" y="190" type="line"/>
    </contour>
    <component base="K"/>
  </outline>
</glyph>
<glyph name="peso" format="2">
  <advance width="623"/>
  <unicode hex="20B1"/>
  <outline>
    <contour>
      <point x="11" y="564" type="line"/>
      <point x="11" y="512" type="line"/>
      <point x="360" y="512" type="line"/>
      <point x="360" y="564" type="line"/>
    </contour>
    <contour>
      <point x="11" y="453" type="line"/>
      <point x="11" y="401" type="line"/>
      <point x="360" y="401" type="line"/>
      <point x="360" y="453" type="line"/>
    </contour>
    <contour>
      <point x="85" y="0" type="line"/>
      <point x="175" y="0" type="line"/>
      <point x="175" y="255" type="line"/>
      <point x="387" y="255" type="line" smooth="yes"/>
      <point x="512" y="255"/>
      <point x="596" y="366"/>
      <point x="596" y="483" type="curve" smooth="yes"/>
      <point x="596" y="595"/>
      <point x="506" y="710"/>
      <point x="381" y="710" type="curve" smooth="yes"/>
      <point x="85" y="710" type="line"/>
    </contour>
    <contour>
      <point x="175" y="335" type="line"/>
      <point x="175" y="630" type="line"/>
      <point x="376" y="630" type="line" smooth="yes"/>
      <point x="445" y="630"/>
      <point x="505" y="567"/>
      <point x="505" y="483" type="curve" smooth="yes"/>
      <point x="505" y="402"/>
      <point x="456" y="335"/>
      <point x="382" y="335" type="curve" smooth="yes"/>
    </contour>
  </outline>
</glyph>
<glyph name="tenge" format="2">
  <advance width="614"/>
  <unicode hex="20B8"/>
  <outline>
    <contour>
      <point x="262" y="0" type="line"/>
      <point x="352" y="0" type="line"/>
      <point x="352" y="480" type="line"/>
      <point x="597" y="480" type="line"/>
      <point x="597" y="560" type="line"/>
      <point x="17" y="560" type="line"/>
      <point x="17" y="480" type="line"/>
      <point x="262" y="480" type="line"/>
    </contour>
    <contour>
      <point x="17" y="630" type="line"/>
      <point x="597" y="630" type="line"/>
      <point x="597" y="710" type="line"/>
      <point x="17" y="710" type="line"/>
    </contour>
  </outline>
</glyph>
<glyph name="rupeeIndian" format="2">
  <advance width="499"/>
  <unicode hex="20B9"/>
  <outline>
    <contour>
      <point x="42" y="710" type="line"/>
      <point x="42" y="630" type="line"/>
      <point x="143" y="630" type="line" smooth="yes"/>
      <point x="212" y="630"/>
      <point x="272" y="563"/>
      <point x="272" y="483" type="curve" smooth="yes"/>
      <point x="272" y="405"/>
      <point x="223" y="335"/>
      <point x="149" y="335" type="curve" smooth="yes"/>
      <point x="72" y="335" type="line"/>
      <point x="284" y="0" type="line"/>
      <point x="386" y="0" type="line"/>
      <point x="214" y="272" type="line"/>
      <point x="304" y="295"/>
      <point x="363" y="384"/>
      <point x="363" y="483" type="curve" smooth="yes"/>
      <point x="363" y="595"/>
      <point x="273" y="710"/>
      <point x="148" y="710" type="curve" smooth="yes"/>
    </contour>
    <contour>
      <point x="462" y="537" type="line"/>
      <point x="462" y="589" type="line"/>
      <point x="42" y="589" type="line"/>
      <point x="42" y="537" type="line"/>
    </contour>
    <contour>
      <point x="462" y="658" type="line"/>
      <point x="462" y="710" type="line"/>
      <point x="42" y="710" type="line"/>
      <point x="42" y="658" type="line"/>
    </contour>
  </outline>
</glyph>
<glyph name="liraTurkish" format="2">
  <advance width="591"/>
  <unicode hex="20BA"/>
  <outline>
    <contour>
      <point x="92" y="0" type="line"/>
      <point x="315" y="0" type="line" smooth="yes"/>
      <point x="520" y="0"/>
      <point x="553" y="96"/>
      <point x="553" y="249" type="curve"/>
      <point x="463" y="249" type="line"/>
      <point x="463" y="113"/>
      <point x="446" y="80"/>
      <point x="322" y="80" type="curve" smooth="yes"/>
      <point x="182" y="80" type="line"/>
      <point x="182" y="710" type="line"/>
      <point x="92" y="710" type="line"/>
    </contour>
    <contour>
      <point x="35" y="237" type="line"/>
      <point x="401" y="411" type="line"/>
      <point x="401" y="474" type="line"/>
      <point x="35" y="300" type="line"/>
    </contour>
    <contour>
      <point x="35" y="381" type="line"/>
      <point x="401" y="555" type="line"/>
      <point x="401" y="618" type="line"/>
      <point x="35" y="444" type="line"/>
    </contour>
  </outline>
</glyph>
<glyph name="servicemark" format="2">
  <advance width="739"/>
  <unicode hex="2120"/>
  <outline>
    <contour>
      <point x="507" y="532" type="line"/>
      <point x="430" y="710" type="line"/>
      <point x="345" y="710" type="line"/>
      <point x="345" y="420" type="line"/>
      <point x="405" y="420" type="line"/>
      <point x="405" y="628" type="line"/>
      <point x="483" y="462" type="line"/>
      <point x="532" y="462" type="line"/>
      <point x="610" y="628" type="line"/>
      <point x="610" y="420" type="line"/>
      <point x="670" y="420" type="line"/>
      <point x="670" y="710" type="line"/>
      <point x="584" y="710" type="line"/>
    </contour>
    <contour>
      <point x="284" y="682" type="line"/>
      <point x="256" y="702"/>
      <point x="221" y="715"/>
      <point x="177" y="715" type="curve" smooth="yes"/>
      <point x="110" y="715"/>
      <point x="60" y="684"/>
      <point x="60" y="628" type="curve" smooth="yes"/>
      <point x="60" y="574"/>
      <point x="95" y="555"/>
      <point x="162" y="539" type="curve" smooth="yes"/>
      <point x="220" y="525"/>
      <point x="235" y="516"/>
      <point x="235" y="494" type="curve" smooth="yes"/>
      <point x="235" y="478"/>
      <point x="216" y="469"/>
      <point x="181" y="469" type="curve" smooth="yes"/>
      <point x="136" y="469"/>
      <point x="96" y="486"/>
      <point x="79" y="503" type="curve"/>
      <point x="51" y="458" type="line"/>
      <point x="87" y="431"/>
      <point x="131" y="416"/>
      <point x="180" y="416" type="curve" smooth="yes"/>
      <point x="248" y="416"/>
      <point x="299" y="441"/>
      <point x="299" y="498" type="curve" smooth="yes"/>
      <point x="299" y="558"/>
      <point x="256" y="579"/>
      <point x="188" y="594" type="curve" smooth="yes"/>
      <point x="132" y="606"/>
      <point x="122" y="617"/>
      <point x="122" y="634" type="curve" smooth="yes"/>
      <point x="122" y="652"/>
      <point x="139" y="663"/>
      <point x="176" y="663" type="curve" smooth="yes"/>
      <point x="213" y="663"/>
      <point x="247" y="647"/>
      <point x="261" y="632" type="curve"/>
    </contour>
  </outline>
</glyph>
<glyph name="twothirds" format="2">
  <advance width="945"/>
  <unicode hex="2154"/>
  <outline>
    <contour>
      <point x="32.81" y="320" type="curve"/>
      <point x="339.68" y="320" type="line"/>
      <point x="339.68" y="374" type="line"/>
      <point x="116.765" y="374" type="line"/>
      <point x="116.765" y="409"/>
      <point x="134.135" y="453"/>
      <point x="213.265" y="480" type="curve" smooth="yes"/>
      <point x="265.375" y="497"/>
      <point x="346.435" y="524"/>
      <point x="346.435" y="608" type="curve" smooth="yes"/>
      <point x="346.435" y="680"/>
      <point x="297.21999999999997" y="731"/>
      <point x="200.72" y="731" type="curve" smooth="yes"/>
      <point x="105.185" y="731"/>
      <point x="49.214999999999996" y="681"/>
      <point x="36.67" y="663" type="curve"/>
      <point x="71.41" y="624" type="line"/>
      <point x="91.675" y="646"/>
      <point x="131.24" y="677"/>
      <point x="193.0" y="677" type="curve" smooth="yes"/>
      <point x="254.76" y="677"/>
      <point x="286.605" y="648"/>
      <point x="286.605" y="609" type="curve" smooth="yes"/>
      <point x="286.605" y="550"/>
      <point x="215.195" y="532"/>
      <point x="155.365" y="508" type="curve" smooth="yes"/>
      <point x="70.445" y="473"/>
      <point x="32.81" y="425"/>
    </contour>
    <component base="fraction" xOffset="382"/>
    <component base="three.dnom" xOffset="550"/>
  </outline>
</glyph>
<glyph name="partialdiff" format="2">
  <advance width="562"/>
  <unicode hex="2202"/>
  <outline>
    <contour>
      <point x="117" y="-10"/>
      <point x="245" y="-10" type="curve" smooth="yes"/>
      <point x="404" y="-10"/>
      <point x="513" y="130"/>
      <point x="513" y="399" type="curve" smooth="yes"/>
      <point x="513" y="623"/>
      <point x="438" y="715"/>
      <point x="293" y="715" type="curve" smooth="yes"/>
      <point x="214" y="715"/>
      <point x="139" y="688"/>
      <point x="96" y="639" type="curve"/>
      <point x="145" y="586" type="line"/>
      <point x="171" y="617"/>
      <point x="230" y="638"/>
      <point x="285" y="638" type="curve" smooth="yes"/>
      <point x="374" y="638"/>
      <point x="430" y="584"/>
      <point x="430" y="419" type="curve" smooth="yes"/>
      <point x="430" y="397"/>
      <point x="429" y="369"/>
      <point x="426" y="340" type="curve"/>
      <point x="406" y="397"/>
      <point x="346" y="434"/>
      <point x="271" y="434" type="curve" smooth="yes"/>
      <point x="139" y="434"/>
      <point x="26" y="321"/>
      <point x="26" y="195" type="curve" smooth="yes"/>
      <point x="26" y="81"/>
    </contour>
    <contour>
      <point x="334" y="66"/>
      <point x="247" y="66" type="curve" smooth="yes"/>
      <point x="169" y="66"/>
      <point x="110" y="126"/>
      <point x="110" y="202" type="curve" smooth="yes"/>
      <point x="110" y="289"/>
      <point x="187" y="363"/>
      <point x="273" y="363" type="curve" smooth="yes"/>
      <point x="350" y="363"/>
      <point x="410" y="304"/>
      <point x="410" y="228" type="curve" smooth="yes"/>
      <point x="410" y="142"/>
    </contour>
  </outline>
</glyph>
<glyph name="summation" format="2">
  <advance width="546"/>
  <unicode hex="2211"/>
  <outline>
    <contour>
      <point x="497" y="710" type="line"/>
      <point x="497" y="637" type="line"/>
      <point x="159" y="637" type="line"/>
      <point x="159" y="633" type="line"/>
      <point x="350" y="369" type="line"/>
      <point x="138" y="84" type="line"/>
      <point x="138" y="80" type="line"/>
      <point x="512" y="80" type="line"/>
      <point x="512" y="0" type="line"/>
      <point x="32" y="0" type="line"/>
      <point x="32" y="63" type="line"/>
      <point x="255" y="356" type="line"/>
      <point x="39" y="654" type="line"/>
      <point x="39" y="710" type="line"/>
    </contour>
  </outline>
</glyph>
<glyph name="divisionslash" format="2">
  <advance width="599"/>
  <unicode hex="2215"/>
  <outline>
    <contour>
      <point x="-9" y="38" type="line"/>
      <point x="43" y="-5" type="line"/>
      <point x="609" y="672" type="line"/>
      <point x="557" y="715" type="line"/>
    </contour>
  </outline>
</glyph>
<glyph name="bulletoperator" format="2">
  <advance width="202"/>
  <unicode hex="2219"/>
  <outline>
    <contour>
      <point x="64" y="245" type="line"/>
      <point x="138" y="245" type="line"/>
      <point x="138" y="369" type="line"/>
      <point x="64" y="369" type="line"/>
    </contour>
  </outline>
</glyph>
<glyph name="notequal" format="2">
  <advance width="481"/>
  <unicode hex="2260"/>
  <outline>
    <contour>
      <point x="108" y="79" type="line"/>
      <point x="146" y="57" type="line"/>
      <point x="373" y="473" type="line"/>
      <point x="335" y="495" type="line"/>
    </contour>
    <contour>
      <point x="88" y="239" type="line"/>
      <point x="88" y="179" type="line"/>
      <point x="393" y="179" type="line"/>
      <point x="393" y="239" type="line"/>
    </contour>
    <contour>
      <point x="88" y="373" type="line"/>
      <point x="88" y="313" type="line"/>
      <point x="393" y="313" type="line"/>
      <point x="393" y="373" type="line"/>
    </contour>
  </outline>
</glyph>
<glyph name="lessequal" format="2">
  <advance width="451"/>
  <unicode hex="2264"/>
  <outline>
    <contour>
      <point x="57" y="51" type="line"/>
      <point x="389" y="51" type="line"/>
      <point x="389" y="123" type="line"/>
      <point x="57" y="123" type="line"/>
    </contour>
    <contour>
      <point x="56" y="390" type="line"/>
      <point x="56" y="344" type="line"/>
      <point x="386" y="184" type="line"/>
      <point x="386" y="272" type="line"/>
      <point x="184" y="369" type="line"/>
      <point x="386" y="469" type="line"/>
      <point x="386" y="553" type="line"/>
    </contour>
  </outline>
</glyph>
<glyph name="commaaccent" format="2">
  <advance width="168"/>
  <unicode hex="F6C3"/>
  <anchor x="100" y="0" name="_bottom"/>
  <outline>
    <contour>
      <point x="106" y="-213" type="line"/>
      <point x="136" y="-132" type="line"/>
      <point x="136" y="-48" type="line"/>
      <point x="58" y="-48" type="line"/>
      <point x="58" y="-132" type="line"/>
      <point x="83" y="-132" type="line"/>
      <point x="63" y="-213" type="line"/>
    </contour>
  </outline>
</glyph>
<glyph name="f_f_l" format="2">
  <advance width="849"/>
  <unicode hex="FB04"/>
  <outline>
    <contour>
      <point x="99" y="0" type="line"/>
      <point x="187" y="0" type="line"/>
      <point x="187" y="453" type="line"/>
      <point x="326" y="453" type="line"/>
      <point x="326" y="522" type="line"/>
      <point x="187" y="522" type="line"/>
      <point x="187" y="529" type="line" smooth="yes"/>
      <point x="187" y="575"/>
      <point x="220" y="626"/>
      <point x="285" y="626" type="curve" smooth="yes"/>
      <point x="312" y="626.0"/>
      <point x="334" y="623"/>
      <point x="363" y="604" type="curve"/>
      <point x="387" y="672" type="line"/>
      <point x="352" y="689"/>
      <point x="318" y="702.0"/>
      <point x="268" y="702" type="curve" smooth="yes"/>
      <point x="163" y="702"/>
      <point x="99.0" y="617.0"/>
      <point x="99" y="526" type="curve" smooth="yes"/>
      <point x="99" y="522" type="line"/>
      <point x="28" y="522" type="line"/>
      <point x="28" y="453" type="line"/>
      <point x="99" y="453" type="line"/>
    </contour>
    <component base="fl" xOffset="243"/>
  </outline>
</glyph>
<glyph name="A.sc" format="2">
  <advance width="588"/>
  <anchor x="322" y="707" name="top"/>
  <anchor x="626" y="8" name="bottom"/>
  <outline>
    <contour>
      <point x="99" y="0" type="line"/>
      <point x="169" y="155" type="line"/>
      <point x="419" y="155" type="line"/>
      <point x="489" y="0" type="line"/>
      <point x="574" y="0" type="line"/>
      <point x="327" y="551" type="line"/>
      <point x="261" y="551" type="line"/>
      <point x="13" y="0" type="line"/>
    </contour>
    <contour>
      <point x="399" y="225" type="line"/>
      <point x="187" y="225" type="line"/>
      <point x="294" y="452" type="line"/>
    </contour>
  </outline>
</glyph>
<glyph name="E.sc" format="2">
  <advance width="530"/>
  <anchor x="345" y="707" name="top"/>
  <anchor x="345" y="0" name="bottom"/>
  <outline>
    <contour>
      <point x="159" y="71" type="line"/>
      <point x="159" y="248" type="line"/>
      <point x="441" y="248" type="line"/>
      <point x="441" y="314" type="line"/>
      <point x="159" y="314" type="line"/>
      <point x="159" y="480" type="line"/>
      <point x="483" y="480" type="line"/>
      <point x="483" y="551" type="line"/>
      <point x="79" y="551" type="line"/>
      <point x="79" y="0" type="line"/>
      <point x="491" y="0" type="line"/>
      <point x="491" y="71" type="line"/>
    </contour>
  </outline>
</glyph>
<glyph name="Ef-cy.loclBGR" format="2">
  <advance width="814"/>
  <outline>
    <contour>
      <point x="364" y="-62" type="line"/>
      <point x="450" y="-62" type="line"/>
      <point x="450" y="-5" type="line"/>
      <point x="621" y="2"/>
      <point x="777" y="138"/>
      <point x="777" y="354" type="curve" smooth="yes"/>
      <point x="776" y="570"/>
      <point x="625" y="707"/>
      <point x="450" y="715" type="curve"/>
      <point x="450" y="772" type="line"/>
      <point x="364" y="772" type="line"/>
      <point x="364" y="715" type="line"/>
      <point x="193" y="708"/>
      <point x="38" y="575"/>
      <point x="37" y="354" type="curve" smooth="yes"/>
      <point x="36" y="144"/>
      <point x="186" y="3"/>
      <point x="364" y="-5" type="curve"/>
    </contour>
    <contour>
      <point x="366" y="69" type="line"/>
      <point x="236" y="75"/>
      <point x="115" y="176"/>
      <point x="115" y="354" type="curve" smooth="yes"/>
      <point x="115" y="529"/>
      <point x="228" y="635"/>
      <point x="366" y="641" type="curve"/>
    </contour>
    <contour>
      <point x="448" y="69" type="curve"/>
      <point x="448" y="641" type="line"/>
      <point x="578" y="635"/>
      <point x="695" y="531"/>
      <point x="695" y="354" type="curve" smooth="yes"/>
      <point x="695" y="182"/>
      <point x="582" y="76"/>
    </contour>
  </outline>
</glyph>
<glyph name="El-cy.loclBGR" format="2">
  <advance width="663"/>
  <outline>
    <contour>
      <point x="16" y="0" type="line"/>
      <point x="109" y="0" type="line"/>
      <point x="332" y="604" type="line"/>
      <point x="554" y="0" type="line"/>
      <point x="647" y="0" type="line"/>
      <point x="373" y="710" type="line"/>
      <point x="291" y="710" type="line"/>
    </contour>
  </outline>
</glyph>
<glyph name="F.sc" format="2">
  <advance width="511"/>
  <outline>
    <contour>
      <point x="159" y="0" type="line"/>
      <point x="159" y="241" type="line"/>
      <point x="429" y="241" type="line"/>
      <point x="429" y="308" type="line"/>
      <point x="159" y="308" type="line"/>
      <point x="159" y="480" type="line"/>
      <point x="479" y="480" type="line"/>
      <point x="479" y="551" type="line"/>
      <point x="79" y="551" type="line"/>
      <point x="79" y="0" type="line"/>
    </contour>
  </outline>
</glyph>
<glyph name="H.sc" format="2">
  <advance width="646"/>
  <anchor x="368" y="707" name="top"/>
  <outline>
    <contour>
      <point x="487" y="551" type="line"/>
      <point x="487" y="318" type="line"/>
      <point x="159" y="318" type="line"/>
      <point x="159" y="551" type="line"/>
      <point x="79" y="551" type="line"/>
      <point x="79" y="0" type="line"/>
      <point x="159" y="0" type="line"/>
      <point x="159" y="246" type="line"/>
      <point x="487" y="246" type="line"/>
      <point x="487" y="0" type="line"/>
      <point x="567" y="0" type="line"/>
      <point x="567" y="551" type="line"/>
    </contour>
  </outline>
</glyph>
<glyph name="J.sc" format="2">
  <advance width="429"/>
  <anchor x="366" y="707" name="top"/>
  <outline>
    <contour>
      <point x="18" y="25" type="line"/>
      <point x="54" y="3"/>
      <point x="98" y="-8"/>
      <point x="150" y="-8" type="curve" smooth="yes"/>
      <point x="335" y="-8"/>
      <point x="357" y="103"/>
      <point x="357" y="271" type="curve" smooth="yes"/>
      <point x="357" y="551" type="line"/>
      <point x="277" y="551" type="line"/>
      <point x="277" y="271" type="line" smooth="yes"/>
      <point x="277" y="135"/>
      <point x="263" y="63"/>
      <point x="150" y="63" type="curve" smooth="yes"/>
      <point x="101" y="63"/>
      <point x="60" y="78"/>
      <point x="39" y="91" type="curve"/>
    </contour>
  </outline>
</glyph>
<glyph name="L.sc" format="2">
  <advance width="492"/>
  <anchor x="332" y="707" name="top"/>
  <anchor x="332" y="0" name="bottom"/>
  <outline>
    <contour>
      <point x="476" y="0" type="line"/>
      <point x="476" y="71" type="line"/>
      <point x="159" y="71" type="line"/>
      <point x="159" y="551" type="line"/>
      <point x="79" y="551" type="line"/>
      <point x="79" y="0" type="line"/>
    </contour>
  </outline>
</glyph>
<glyph name="M.sc" format="2">
  <advance width="759"/>
  <outline>
    <contour>
      <point x="680" y="0" type="line"/>
      <point x="680" y="551" type="line"/>
      <point x="596" y="551" type="line"/>
      <point x="380" y="206" type="line"/>
      <point x="164" y="551" type="line"/>
      <point x="79" y="551" type="line"/>
      <point x="79" y="0" type="line"/>
      <point x="159" y="0" type="line"/>
      <point x="159" y="409" type="line"/>
      <point x="357" y="98" type="line"/>
      <point x="402" y="98" type="line"/>
      <point x="600" y="409" type="line"/>
      <point x="600" y="0" type="line"/>
    </contour>
  </outline>
</glyph>
<glyph name="N.sc" format="2">
  <advance width="670"/>
  <anchor x="394" y="707" name="top"/>
  <anchor x="395" y="0" name="bottom"/>
  <outline>
    <contour>
      <point x="524" y="0" type="line"/>
      <point x="591" y="0" type="line"/>
      <point x="591" y="551" type="line"/>
      <point x="511" y="551" type="line"/>
      <point x="511" y="141" type="line"/>
      <point x="141" y="551" type="line"/>
      <point x="79" y="551" type="line"/>
      <point x="79" y="0" type="line"/>
      <point x="159" y="0" type="line"/>
      <point x="159" y="402" type="line"/>
    </contour>
  </outline>
</glyph>
<glyph name="P.sc" format="2">
  <advance width="546"/>
  <outline>
    <contour>
      <point x="159" y="0" type="line"/>
      <point x="159" y="194" type="line"/>
      <point x="337" y="194" type="line" smooth="yes"/>
      <point x="444" y="194"/>
      <point x="516" y="281"/>
      <point x="516" y="373" type="curve" smooth="yes"/>
      <point x="516" y="460"/>
      <point x="439" y="551"/>
      <point x="331" y="551" type="curve" smooth="yes"/>
      <point x="79" y="551" type="line"/>
      <point x="79" y="0" type="line"/>
    </contour>
    <contour>
      <point x="159" y="480" type="line"/>
      <point x="327" y="480" type="line" smooth="yes"/>
      <point x="385" y="480"/>
      <point x="435" y="435"/>
      <point x="435" y="373" type="curve" smooth="yes"/>
      <point x="435" y="312"/>
      <point x="394" y="265"/>
      <point x="332" y="265" type="curve" smooth="yes"/>
      <point x="159" y="265" type="line"/>
    </contour>
  </outline>
</glyph>
<glyph name="R.sc" format="2">
  <advance width="576"/>
  <anchor x="317" y="710" name="top"/>
  <anchor x="317" y="0" name="bottom"/>
  <outline>
    <contour>
      <point x="159" y="0" type="line"/>
      <point x="159" y="194" type="line"/>
      <point x="316" y="194" type="line"/>
      <point x="452" y="0" type="line"/>
      <point x="544" y="0" type="line"/>
      <point x="398" y="210" type="line"/>
      <point x="473" y="230"/>
      <point x="523" y="298"/>
      <point x="523" y="373" type="curve" smooth="yes"/>
      <point x="523" y="460"/>
      <point x="446" y="551"/>
      <point x="339" y="551" type="curve" smooth="yes"/>
      <point x="79" y="551" type="line"/>
      <point x="79" y="0" type="line"/>
    </contour>
    <contour>
      <point x="159" y="480" type="line"/>
      <point x="334" y="480" type="line" smooth="yes"/>
      <point x="393" y="480"/>
      <point x="442" y="432"/>
      <point x="442" y="373" type="curve" smooth="yes"/>
      <point x="442" y="315"/>
      <point x="400" y="265"/>
      <point x="339" y="265" type="curve" smooth="yes"/>
      <point x="159" y="265" type="line"/>
    </contour>
  </outline>
</glyph>
<glyph name="Reversedze-cy.001" format="2">
  <advance width="564"/>
  <anchor x="271" y="0" name="bottom"/>
  <anchor x="273" y="710" name="top"/>
  <outline>
    <contour>
      <point x="284" y="-8" type="curve" smooth="yes"/>
      <point x="387" y="-8"/>
      <point x="473" y="37"/>
      <point x="519" y="115" type="curve"/>
      <point x="450" y="157" type="line"/>
      <point x="417" y="101"/>
      <point x="359" y="68"/>
      <point x="286" y="68" type="curve" smooth="yes"/>
      <point x="189" y="68"/>
      <point x="132" y="120"/>
      <point x="132" y="200" type="curve" smooth="yes"/>
      <point x="132" y="276"/>
      <point x="184" y="330"/>
      <point x="276" y="330" type="curve" smooth="yes"/>
      <point x="349" y="330" type="line"/>
      <point x="349" y="401" type="line"/>
      <point x="275" y="401" type="line" smooth="yes"/>
      <point x="204" y="401"/>
      <point x="137" y="451"/>
      <point x="137" y="518" type="curve" smooth="yes"/>
      <point x="137" y="587"/>
      <point x="197" y="636"/>
      <point x="279" y="636" type="curve" smooth="yes"/>
      <point x="369" y="636"/>
      <point x="412" y="604"/>
      <point x="441" y="552" type="curve"/>
      <point x="507" y="597" type="line"/>
      <point x="462" y="671"/>
      <point x="389" y="718"/>
      <point x="285" y="718" type="curve" smooth="yes"/>
      <point x="156" y="718"/>
      <point x="50" y="645"/>
      <point x="50" y="530" type="curve" smooth="yes"/>
      <point x="50" y="444"/>
      <point x="105" y="398"/>
      <point x="171" y="369" type="curve"/>
      <point x="89" y="346"/>
      <point x="41" y="287"/>
      <point x="41" y="202" type="curve" smooth="yes"/>
      <point x="41" y="76"/>
      <point x="143" y="-8"/>
    </contour>
  </outline>
</glyph>
<glyph name="S.sc" format="2">
  <advance width="525"/>
  <anchor x="306" y="729" name="top"/>
  <anchor x="306" y="0" name="bottom"/>
  <outline>
    <contour>
      <point x="464" y="492" type="line"/>
      <point x="414" y="530"/>
      <point x="348" y="555"/>
      <point x="268" y="555" type="curve" smooth="yes"/>
      <point x="146" y="555"/>
      <point x="54" y="498"/>
      <point x="54" y="392" type="curve" smooth="yes"/>
      <point x="54" y="303"/>
      <point x="115" y="270"/>
      <point x="235" y="243" type="curve" smooth="yes"/>
      <point x="344" y="219"/>
      <point x="405" y="201"/>
      <point x="405" y="143" type="curve" smooth="yes"/>
      <point x="405" y="92"/>
      <point x="356" y="66"/>
      <point x="276" y="66" type="curve" smooth="yes"/>
      <point x="185" y="66"/>
      <point x="108" y="101"/>
      <point x="69" y="138" type="curve"/>
      <point x="31" y="70" type="line"/>
      <point x="98" y="21"/>
      <point x="183" y="-6"/>
      <point x="274" y="-6" type="curve" smooth="yes"/>
      <point x="396" y="-6"/>
      <point x="491" y="41"/>
      <point x="491" y="151" type="curve" smooth="yes"/>
      <point x="491" y="251"/>
      <point x="413" y="282"/>
      <point x="291" y="309" type="curve" smooth="yes"/>
      <point x="186" y="332"/>
      <point x="136" y="347"/>
      <point x="136" y="401" type="curve" smooth="yes"/>
      <point x="136" y="453"/>
      <point x="177" y="484"/>
      <point x="267" y="484" type="curve" smooth="yes"/>
      <point x="337" y="484"/>
      <point x="397" y="457"/>
      <point x="428" y="427" type="curve"/>
    </contour>
  </outline>
</glyph>
<glyph name="T.sc" format="2">
  <advance width="537"/>
  <anchor x="298" y="707" name="top"/>
  <anchor x="298" y="0" name="bottom"/>
  <outline>
    <contour>
      <point x="516" y="551" type="line"/>
      <point x="21" y="551" type="line"/>
      <point x="21" y="480" type="line"/>
      <point x="229" y="480" type="line"/>
      <point x="229" y="0" type="line"/>
      <point x="309" y="0" type="line"/>
      <point x="309" y="480" type="line"/>
      <point x="516" y="480" type="line"/>
    </contour>
  </outline>
</glyph>
<glyph name="W.alt" format="2">
  <advance width="1077"/>
  <outline>
    <contour>
      <point x="957" y="710" type="line"/>
      <point x="779" y="133" type="line"/>
      <point x="584" y="710" type="line"/>
      <point x="486" y="710" type="line"/>
      <point x="298" y="133" type="line"/>
      <point x="119" y="710" type="line"/>
      <point x="18" y="710" type="line"/>
      <point x="243" y="0" type="line"/>
      <point x="337" y="0" type="line"/>
      <point x="536" y="563" type="line"/>
      <point x="740" y="0" type="line"/>
      <point x="834" y="0" type="line"/>
      <point x="1059" y="710" type="line"/>
    </contour>
  </outline>
</glyph>
<glyph name="Y.sc" format="2">
  <advance width="567"/>
  <anchor x="299" y="707" name="top"/>
  <outline>
    <contour>
      <point x="15" y="551" type="line"/>
      <point x="243" y="200" type="line"/>
      <point x="243" y="0" type="line"/>
      <point x="323" y="0" type="line"/>
      <point x="323" y="199" type="line"/>
      <point x="553" y="551" type="line"/>
      <point x="465" y="551" type="line"/>
      <point x="283" y="270" type="line"/>
      <point x="102" y="551" type="line"/>
    </contour>
  </outline>
</glyph>
<glyph name="Z.sc" format="2">
  <advance width="556"/>
  <anchor x="336" y="707" name="top"/>
  <outline>
    <contour>
      <point x="36" y="0" type="line"/>
      <point x="516" y="0" type="line"/>
      <point x="516" y="71" type="line"/>
      <point x="137" y="71" type="line"/>
      <point x="516" y="489" type="line"/>
      <point x="516" y="551" type="line"/>
      <point x="44" y="551" type="line"/>
      <point x="44" y="480" type="line"/>
      <point x="422" y="480" type="line"/>
      <point x="36" y="62" type="line"/>
    </contour>
  </outline>
</glyph>
<glyph name="b.sc" format="2">
  <advance width="584"/>
  <outline>
    <contour>
      <point x="542" y="55"/>
      <point x="542" y="142" type="curve" smooth="yes"/>
      <point x="542" y="212"/>
      <point x="499" y="264"/>
      <point x="431" y="283" type="curve"/>
      <point x="485" y="305"/>
      <point x="516" y="356"/>
      <point x="516" y="410" type="curve" smooth="yes"/>
      <point x="516" y="480"/>
      <point x="464" y="551"/>
      <point x="380" y="551" type="curve" smooth="yes"/>
      <point x="79" y="551" type="line"/>
      <point x="79" y="0" type="line"/>
      <point x="364" y="0" type="line" smooth="yes"/>
      <point x="462" y="0"/>
    </contour>
    <contour>
      <point x="461" y="204"/>
      <point x="461" y="157" type="curve" smooth="yes"/>
      <point x="461" y="110"/>
      <point x="418" y="69"/>
      <point x="364" y="69" type="curve" smooth="yes"/>
      <point x="159" y="69" type="line"/>
      <point x="159" y="246" type="line"/>
      <point x="370" y="246" type="line" smooth="yes"/>
      <point x="422" y="246"/>
    </contour>
    <contour>
      <point x="159" y="481" type="line"/>
      <point x="352" y="481" type="line"/>
      <point x="401" y="481"/>
      <point x="437" y="445"/>
      <point x="437" y="396" type="curve" smooth="yes"/>
      <point x="437" y="348"/>
      <point x="398" y="311"/>
      <point x="347" y="311" type="curve" smooth="yes"/>
      <point x="159" y="311" type="line"/>
    </contour>
  </outline>
</glyph>
<glyph name="c.sc" format="2">
  <advance width="594"/>
  <anchor x="377" y="0" name="bottom"/>
  <anchor x="378" y="707" name="top"/>
  <outline>
    <contour>
      <point x="40" y="413"/>
      <point x="40" y="280" type="curve" smooth="yes"/>
      <point x="40" y="139"/>
      <point x="157" y="-5"/>
      <point x="323" y="-5" type="curve" smooth="yes"/>
      <point x="417" y="-5"/>
      <point x="525" y="41"/>
      <point x="564" y="123" type="curve"/>
      <point x="497" y="161" type="line"/>
      <point x="463" y="95"/>
      <point x="389" y="67"/>
      <point x="327" y="67" type="curve" smooth="yes"/>
      <point x="208" y="67"/>
      <point x="121" y="166"/>
      <point x="121" y="276" type="curve" smooth="yes"/>
      <point x="121" y="376"/>
      <point x="192" y="482"/>
      <point x="325" y="482" type="curve" smooth="yes"/>
      <point x="385" y="482"/>
      <point x="455" y="460"/>
      <point x="490" y="392" type="curve"/>
      <point x="553" y="434" type="line"/>
      <point x="516" y="505"/>
      <point x="435" y="554"/>
      <point x="328" y="554" type="curve" smooth="yes"/>
      <point x="145" y="554"/>
    </contour>
  </outline>
</glyph>
<glyph name="d.sc" format="2">
  <advance width="625"/>
  <anchor x="354" y="707" name="top"/>
  <outline>
    <contour>
      <point x="79" y="0" type="line"/>
      <point x="290" y="0" type="line"/>
      <point x="467" y="0"/>
      <point x="583" y="109"/>
      <point x="583" y="277" type="curve" smooth="yes"/>
      <point x="583" y="429"/>
      <point x="484" y="551"/>
      <point x="290" y="551" type="curve" smooth="yes"/>
      <point x="79" y="551" type="line"/>
    </contour>
    <contour>
      <point x="501" y="396"/>
      <point x="501" y="277" type="curve" smooth="yes"/>
      <point x="501" y="159"/>
      <point x="428" y="71"/>
      <point x="290" y="71" type="curve" smooth="yes"/>
      <point x="159" y="71" type="line"/>
      <point x="159" y="480" type="line"/>
      <point x="290" y="480" type="line" smooth="yes"/>
      <point x="425" y="480"/>
    </contour>
  </outline>
</glyph>
<glyph name="descender-cy" format="2">
  <advance width="210"/>
  <anchor x="0" y="0" name="_bottomright"/>
  <outline>
    <contour>
      <point x="86" y="-123" type="line"/>
      <point x="164" y="-123" type="line"/>
      <point x="164" y="77" type="line"/>
      <point x="0" y="77" type="line"/>
      <point x="0" y="0" type="line"/>
      <point x="86" y="0" type="line"/>
    </contour>
  </outline>
</glyph>
<glyph name="f.sc" format="2">
  <advance width="511"/>
  <outline>
    <contour>
      <point x="79" y="0" type="line"/>
      <point x="159" y="0" type="line"/>
      <point x="159" y="241" type="line"/>
      <point x="429" y="241" type="line"/>
      <point x="429" y="308" type="line"/>
      <point x="159" y="308" type="line"/>
      <point x="159" y="480" type="line"/>
      <point x="479" y="480" type="line"/>
      <point x="479" y="551" type="line"/>
      <point x="79" y="551" type="line"/>
    </contour>
  </outline>
</glyph>
<glyph name="f_f_i" format="2">
  <advance width="765"/>
  <outline>
    <contour>
      <point x="99" y="0" type="line"/>
      <point x="187" y="0" type="line"/>
      <point x="187" y="453" type="line"/>
      <point x="339" y="453" type="line"/>
      <point x="339" y="0" type="line"/>
      <point x="427" y="0" type="line"/>
      <point x="427" y="453" type="line"/>
      <point x="606" y="453" type="line"/>
      <point x="606" y="0" type="line"/>
      <point x="694" y="0" type="line"/>
      <point x="694" y="522" type="line"/>
      <point x="427" y="522" type="line"/>
      <point x="427" y="536" type="line" smooth="yes"/>
      <point x="427" y="598"/>
      <point x="459" y="664"/>
      <point x="539" y="664" type="curve" smooth="yes"/>
      <point x="586" y="664"/>
      <point x="633" y="645"/>
      <point x="658" y="623" type="curve"/>
      <point x="696" y="688" type="line"/>
      <point x="660" y="711"/>
      <point x="601" y="740"/>
      <point x="531" y="740" type="curve" smooth="yes"/>
      <point x="463" y="740"/>
      <point x="413" y="714"/>
      <point x="381" y="675" type="curve"/>
      <point x="351" y="689"/>
      <point x="311" y="702"/>
      <point x="263" y="702" type="curve" smooth="yes"/>
      <point x="156" y="702"/>
      <point x="99" y="611"/>
      <point x="99" y="526" type="curve" smooth="yes"/>
      <point x="99" y="522" type="line"/>
      <point x="28" y="522" type="line"/>
      <point x="28" y="453" type="line"/>
      <point x="99" y="453" type="line"/>
    </contour>
    <contour>
      <point x="187" y="522" type="line"/>
      <point x="187" y="527" type="line" smooth="yes"/>
      <point x="187" y="576"/>
      <point x="212" y="626"/>
      <point x="279" y="626" type="curve" smooth="yes"/>
      <point x="302" y="626"/>
      <point x="334" y="622"/>
      <point x="355" y="608" type="curve"/>
      <point x="344" y="587"/>
      <point x="339" y="547"/>
      <point x="339" y="522" type="curve"/>
    </contour>
  </outline>
</glyph>
<glyph name="h.sc" format="2">
  <advance width="646"/>
  <anchor x="368" y="707" name="top"/>
  <outline>
    <contour>
      <point x="567" y="551" type="line"/>
      <point x="487" y="551" type="line"/>
      <point x="487" y="318" type="line"/>
      <point x="159" y="318" type="line"/>
      <point x="159" y="551" type="line"/>
      <point x="79" y="551" type="line"/>
      <point x="79" y="0" type="line"/>
      <point x="159" y="0" type="line"/>
      <point x="159" y="246" type="line"/>
      <point x="487" y="246" type="line"/>
      <point x="487" y="0" type="line"/>
      <point x="567" y="0" type="line"/>
    </contour>
  </outline>
</glyph>
<glyph name="hardsign-cy.loclBGR" format="2">
  <advance width="644"/>
  <outline>
    <contour>
      <point x="390" y="-6" type="curve" smooth="yes"/>
      <point x="520" y="-6"/>
      <point x="609" y="50"/>
      <point x="609" y="177" type="curve" smooth="yes"/>
      <point x="609" y="304"/>
      <point x="520" y="360"/>
      <point x="390" y="360" type="curve" smooth="yes"/>
      <point x="255" y="360" type="line"/>
      <point x="255" y="522" type="line"/>
      <point x="16" y="522" type="line"/>
      <point x="16" y="449" type="line"/>
      <point x="167" y="449" type="line"/>
      <point x="167" y="201" type="line" smooth="yes"/>
      <point x="167" y="65"/>
      <point x="248" y="-6"/>
    </contour>
    <contour>
      <point x="388" y="68" type="curve" smooth="yes"/>
      <point x="302" y="68"/>
      <point x="255" y="114"/>
      <point x="255" y="197" type="curve" smooth="yes"/>
      <point x="255" y="290" type="line"/>
      <point x="388" y="290" type="line" smooth="yes"/>
      <point x="473" y="290"/>
      <point x="521" y="249"/>
      <point x="521" y="179" type="curve" smooth="yes"/>
      <point x="521" y="108"/>
      <point x="473" y="68"/>
    </contour>
  </outline>
</glyph>
<glyph name="i.sc" format="2">
  <advance width="238"/>
  <anchor x="111" y="0" name="bottom"/>
  <anchor x="110" y="707" name="top"/>
  <outline>
    <contour>
      <point x="79" y="0" type="line"/>
      <point x="159" y="0" type="line"/>
      <point x="159" y="551" type="line"/>
      <point x="79" y="551" type="line"/>
    </contour>
  </outline>
</glyph>
<glyph name="n.sc" format="2">
  <advance width="670"/>
  <anchor x="395" y="0" name="bottom"/>
  <anchor x="394" y="707" name="top"/>
  <outline>
    <contour>
      <point x="159" y="402" type="line"/>
      <point x="524" y="0" type="line"/>
      <point x="591" y="0" type="line"/>
      <point x="591" y="551" type="line"/>
      <point x="511" y="551" type="line"/>
      <point x="511" y="141" type="line"/>
      <point x="141" y="551" type="line"/>
      <point x="79" y="551" type="line"/>
      <point x="79" y="0" type="line"/>
      <point x="159" y="0" type="line"/>
    </contour>
  </outline>
</glyph>
<glyph name="one.lnum" format="2">
  <advance width="441"/>
  <outline>
    <contour>
      <point x="292" y="80" type="line"/>
      <point x="292" y="718" type="line"/>
      <point x="202" y="718" type="line"/>
      <point x="200" y="714"/>
      <point x="114" y="621"/>
      <point x="43" y="621" type="curve"/>
      <point x="43" y="539" type="line"/>
      <point x="97" y="539"/>
      <point x="180" y="594"/>
      <point x="202" y="625" type="curve"/>
      <point x="202" y="80" type="line"/>
      <point x="66" y="80" type="line"/>
      <point x="66" y="0" type="line"/>
      <point x="419" y="0" type="line"/>
      <point x="419" y="80" type="line"/>
    </contour>
  </outline>
</glyph>
<glyph name="s_t" format="2">
  <advance width="828"/>
  <outline>
    <contour>
      <point x="817" y="26" type="curve"/>
      <point x="797" y="96" type="line"/>
      <point x="786" y="90"/>
      <point x="753" y="74"/>
      <point x="721" y="74" type="curve" smooth="yes"/>
      <point x="688" y="74"/>
      <point x="661" y="91"/>
      <point x="661" y="129" type="curve" smooth="yes"/>
      <point x="661" y="453" type="line"/>
      <point x="777" y="453" type="line"/>
      <point x="777" y="522" type="line"/>
      <point x="661" y="522" type="line"/>
      <point x="661" y="668"/>
      <point x="652" y="744"/>
      <point x="503" y="744" type="curve" smooth="yes"/>
      <point x="378" y="744"/>
      <point x="334" y="681"/>
      <point x="334" y="605" type="curve" smooth="yes"/>
      <point x="334" y="561"/>
      <point x="347" y="535"/>
      <point x="364" y="500" type="curve"/>
      <point x="329" y="522"/>
      <point x="279" y="531"/>
      <point x="238" y="531" type="curve" smooth="yes"/>
      <point x="144" y="531"/>
      <point x="45" y="482"/>
      <point x="45" y="369" type="curve" smooth="yes"/>
      <point x="45" y="270"/>
      <point x="124" y="246"/>
      <point x="232" y="227" type="curve" smooth="yes"/>
      <point x="295" y="216"/>
      <point x="376" y="211"/>
      <point x="376" y="140" type="curve" smooth="yes"/>
      <point x="376" y="78"/>
      <point x="312" y="55"/>
      <point x="252" y="55" type="curve" smooth="yes"/>
      <point x="190" y="55"/>
      <point x="127" y="79"/>
      <point x="67" y="124" type="curve"/>
      <point x="31" y="64" type="line"/>
      <point x="83" y="23"/>
      <point x="168" y="-10"/>
      <point x="253" y="-10" type="curve" smooth="yes"/>
      <point x="358" y="-10"/>
      <point x="457" y="38"/>
      <point x="457" y="149" type="curve" smooth="yes"/>
      <point x="457" y="253"/>
      <point x="364" y="279"/>
      <point x="257" y="294" type="curve" smooth="yes"/>
      <point x="198" y="302"/>
      <point x="124" y="312"/>
      <point x="124" y="382" type="curve" smooth="yes"/>
      <point x="124" y="446"/>
      <point x="183" y="467"/>
      <point x="243" y="467" type="curve" smooth="yes"/>
      <point x="289" y="467"/>
      <point x="342" y="454"/>
      <point x="389" y="410" type="curve"/>
      <point x="428" y="463" type="line"/>
      <point x="419" y="474"/>
      <point x="376" y="536"/>
      <point x="376" y="604" type="curve" smooth="yes"/>
      <point x="376" y="658"/>
      <point x="405" y="700"/>
      <point x="484" y="700" type="curve" smooth="yes"/>
      <point x="560" y="700"/>
      <point x="573" y="661"/>
      <point x="573" y="522" type="curve"/>
      <point x="502" y="522" type="line"/>
      <point x="502" y="453" type="line"/>
      <point x="573" y="453" type="line"/>
      <point x="573" y="102" type="line" smooth="yes"/>
      <point x="573" y="27"/>
      <point x="626" y="-7"/>
      <point x="692" y="-7" type="curve" smooth="yes"/>
      <point x="744" y="-7"/>
      <point x="795" y="16"/>
    </contour>
  </outline>
</glyph>
<glyph name="shcha-cy.loclBGR" format="2">
  <advance width="952"/>
  <outline>
    <contour>
      <point x="845" y="-123" type="line"/>
      <point x="925" y="-123" type="line"/>
      <point x="925" y="77" type="line"/>
      <point x="879" y="77" type="line" smooth="yes"/>
      <point x="860" y="77"/>
      <point x="851" y="87"/>
      <point x="851" y="108" type="curve" smooth="yes"/>
      <point x="851" y="522" type="line"/>
      <point x="763" y="522" type="line"/>
      <point x="763" y="207" type="line"/>
      <point x="739" y="125"/>
      <point x="676" y="70"/>
      <point x="606" y="70" type="curve" smooth="yes"/>
      <point x="537" y="70"/>
      <point x="502" y="119"/>
      <point x="502" y="230" type="curve" smooth="yes"/>
      <point x="502" y="522" type="line"/>
      <point x="414" y="522" type="line"/>
      <point x="414" y="208" type="line"/>
      <point x="391" y="127"/>
      <point x="328" y="70"/>
      <point x="257" y="70" type="curve" smooth="yes"/>
      <point x="188" y="70"/>
      <point x="152" y="120"/>
      <point x="152" y="230" type="curve" smooth="yes"/>
      <point x="152" y="522" type="line"/>
      <point x="64" y="522" type="line"/>
      <point x="64" y="210" type="line" smooth="yes"/>
      <point x="64" y="85"/>
      <point x="102" y="-9"/>
      <point x="222" y="-9" type="curve" smooth="yes"/>
      <point x="307" y="-9"/>
      <point x="375" y="35"/>
      <point x="421" y="118" type="curve"/>
      <point x="433" y="44"/>
      <point x="486" y="-9"/>
      <point x="573" y="-9" type="curve" smooth="yes"/>
      <point x="661" y="-9"/>
      <point x="733" y="36"/>
      <point x="775" y="113" type="curve"/>
      <point x="776" y="54" type="line"/>
      <point x="778" y="30"/>
      <point x="793" y="7"/>
      <point x="821" y="2" type="curve"/>
      <point x="845" y="0" type="line"/>
    </contour>
  </outline>
</glyph>
<glyph name="three.dnom" format="2">
  <advance width="395"/>
  <outline>
    <contour>
      <point x="107" y="-5"/>
      <point x="190" y="-5" type="curve" smooth="yes"/>
      <point x="278" y="-5"/>
      <point x="357" y="34"/>
      <point x="357" y="107" type="curve" smooth="yes"/>
      <point x="357" y="159"/>
      <point x="317" y="202"/>
      <point x="254" y="211" type="curve"/>
      <point x="313" y="223"/>
      <point x="346" y="253"/>
      <point x="346" y="300" type="curve" smooth="yes"/>
      <point x="346" y="363"/>
      <point x="278" y="411"/>
      <point x="187" y="411" type="curve" smooth="yes"/>
      <point x="123" y="411"/>
      <point x="61" y="388"/>
      <point x="35" y="349" type="curve"/>
      <point x="72" y="306" type="line"/>
      <point x="93" y="338"/>
      <point x="133" y="360"/>
      <point x="187" y="360" type="curve" smooth="yes"/>
      <point x="239" y="360"/>
      <point x="287" y="336"/>
      <point x="287" y="296" type="curve" smooth="yes"/>
      <point x="287" y="254"/>
      <point x="235" y="234"/>
      <point x="152" y="234" type="curve" smooth="yes"/>
      <point x="129" y="234" type="line"/>
      <point x="129" y="184" type="line"/>
      <point x="152" y="184" type="line" smooth="yes"/>
      <point x="243" y="184"/>
      <point x="301" y="159"/>
      <point x="301" y="115" type="curve" smooth="yes"/>
      <point x="301" y="75"/>
      <point x="251" y="50"/>
      <point x="189" y="50" type="curve" smooth="yes"/>
      <point x="116" y="50"/>
      <point x="68" y="90"/>
      <point x="64" y="118" type="curve"/>
      <point x="32" y="81" type="line"/>
      <point x="45" y="27"/>
    </contour>
  </outline>
</glyph>
<glyph name="tse-cy.loclBGR" format="2">
  <advance width="626"/>
  <anchor x="294" y="522" name="top"/>
  <outline>
    <contour>
      <point x="519" y="-123" type="line"/>
      <point x="599" y="-123" type="line"/>
      <point x="599" y="77" type="line"/>
      <point x="553" y="77" type="line" smooth="yes"/>
      <point x="535" y="77"/>
      <point x="525" y="87"/>
      <point x="525" y="108" type="curve" smooth="yes"/>
      <point x="525" y="522" type="line"/>
      <point x="437" y="522" type="line"/>
      <point x="437" y="195" type="line"/>
      <point x="406" y="115"/>
      <point x="337" y="66"/>
      <point x="265" y="66" type="curve" smooth="yes"/>
      <point x="192" y="66"/>
      <point x="154" y="119"/>
      <point x="154" y="226" type="curve" smooth="yes"/>
      <point x="154" y="522" type="line"/>
      <point x="66" y="522" type="line"/>
      <point x="66" y="209" type="line" smooth="yes"/>
      <point x="66" y="65"/>
      <point x="123" y="-10"/>
      <point x="232" y="-10" type="curve" smooth="yes"/>
      <point x="322" y="-10"/>
      <point x="403" y="34"/>
      <point x="449" y="112" type="curve"/>
      <point x="450" y="54" type="line"/>
      <point x="453" y="30"/>
      <point x="468" y="6"/>
      <point x="496" y="1" type="curve"/>
      <point x="519" y="0" type="line"/>
    </contour>
  </outline>
</glyph>
<glyph name="v.sc" format="2">
  <advance width="591"/>
  <outline>
    <contour>
      <point x="99" y="551" type="line"/>
      <point x="14" y="551" type="line"/>
      <point x="261" y="0" type="line"/>
      <point x="330" y="0" type="line"/>
      <point x="577" y="551" type="line"/>
      <point x="492" y="551" type="line"/>
      <point x="296" y="112" type="line"/>
    </contour>
  </outline>
</glyph>
<glyph name="w.ss09" format="2">
  <advance width="842"/>
  <outline>
    <contour>
      <point x="547" y="0" type="line"/>
      <point x="641" y="0" type="line"/>
      <point x="823" y="522" type="line"/>
      <point x="732" y="522" type="line"/>
      <point x="591" y="108" type="line"/>
      <point x="463" y="522" type="line"/>
      <point x="379" y="522" type="line"/>
      <point x="251" y="108" type="line"/>
      <point x="110" y="522" type="line"/>
      <point x="18" y="522" type="line"/>
      <point x="201" y="0" type="line"/>
      <point x="294" y="0" type="line"/>
      <point x="421" y="387" type="line"/>
    </contour>
  </outline>
</glyph>
<glyph name="y.ss10" format="2">
  <advance width="547"/>
  <outline>
    <contour>
      <point x="528" y="522" type="line"/>
      <point x="444" y="522" type="line"/>
      <point x="281" y="79" type="line"/>
      <point x="104" y="522" type="line"/>
      <point x="12" y="522" type="line"/>
      <point x="233" y="0" type="line"/>
      <point x="147" y="-213" type="line"/>
      <point x="247" y="-213" type="line"/>
    </contour>
  </outline>
</glyph>
<glyph name="zero.dnom" format="2">
  <advance width="467"/>
  <outline>
    <contour>
      <point x="103" y="-5"/>
      <point x="234" y="-5" type="curve" smooth="yes"/>
      <point x="356" y="-5"/>
      <point x="431" y="101"/>
      <point x="431" y="200" type="curve" smooth="yes"/>
      <point x="431" y="289"/>
      <point x="364" y="406"/>
      <point x="234" y="406" type="curve" smooth="yes"/>
      <point x="112" y="406"/>
      <point x="36" y="298"/>
      <point x="36" y="200" type="curve" smooth="yes"/>
      <point x="36" y="109"/>
    </contour>
    <contour>
      <point x="93" y="130"/>
      <point x="93" y="200" type="curve" smooth="yes"/>
      <point x="93" y="264"/>
      <point x="138" y="351"/>
      <point x="234" y="351" type="curve" smooth="yes"/>
      <point x="324" y="351"/>
      <point x="375" y="271"/>
      <point x="375" y="200" type="curve" smooth="yes"/>
      <point x="375" y="137"/>
      <point x="330" y="50"/>
      <point x="234" y="50" type="curve" smooth="yes"/>
      <point x="142" y="50"/>
    </contour>
  </outline>
</glyph>
<glyph name="zero.lf" format="2">
  <advance width="690"/>
  <outline>
    <contour>
      <point x="149" y="-6"/>
      <point x="345" y="-10" type="curve"/>
      <point x="529" y="-8"/>
      <point x="643" y="177"/>
      <point x="643" y="350" type="curve" smooth="yes"/>
      <point x="643" y="505"/>
      <point x="542" y="710"/>
      <point x="345" y="710" type="curve" smooth="yes"/>
      <point x="161" y="710"/>
      <point x="47" y="521"/>
      <point x="47" y="350" type="curve" smooth="yes"/>
      <point x="47" y="190"/>
    </contour>
    <contour>
      <point x="142" y="220"/>
      <point x="138" y="350" type="curve"/>
      <point x="138" y="467"/>
      <point x="204" y="629"/>
      <point x="345" y="629" type="curve" smooth="yes"/>
      <point x="477" y="629"/>
      <point x="552" y="480"/>
      <point x="552" y="350" type="curve" smooth="yes"/>
      <point x="552" y="232"/>
      <point x="486" y="71"/>
      <point x="345" y="71" type="curve" smooth="yes"/>
      <point x="209" y="71"/>
    </contour>
  </outline>
</glyph>
<glyph name="zero.numr" format="2">
  <advance width="467"/>
  <outline>
    <contour>
      <point x="103" y="319"/>
      <point x="234" y="319" type="curve" smooth="yes"/>
      <point x="356" y="319"/>
      <point x="431" y="425"/>
      <point x="431" y="524" type="curve" smooth="yes"/>
      <point x="431" y="613"/>
      <point x="364" y="730"/>
      <point x="234" y="730" type="curve" smooth="yes"/>
      <point x="112" y="730"/>
      <point x="36" y="622"/>
      <point x="36" y="524" type="curve" smooth="yes"/>
      <point x="36" y="433"/>
    </contour>
    <contour>
      <point x="93" y="454"/>
      <point x="93" y="524" type="curve" smooth="yes"/>
      <point x="93" y="588"/>
      <point x="138" y="675"/>
      <point x="234" y="675" type="curve" smooth="yes"/>
      <point x="324" y="675"/>
      <point x="375" y="595"/>
      <point x="375" y="524" type="curve" smooth="yes"/>
      <point x="375" y="461"/>
      <point x="330" y="374"/>
      <point x="234" y="374" type="curve" smooth="yes"/>
      <point x="142" y="374"/>
    </contour>
  </outline>
</glyph>
